<svg width="92" height="84" viewBox="0 0 92 84" fill="none" xmlns="http://www.w3.org/2000/svg">
<g filter="url(#filter0_f_30_137)">
<mask id="path-1-outside-1_30_137" maskUnits="userSpaceOnUse" x="3" y="11" width="87" height="55" fill="black">
<rect fill="white" x="3" y="11" width="87" height="55"/>
<path d="M12.416 25.48L29.024 15.88C30.112 15.24 31.072 15.16 31.904 15.64C32.768 16.12 33.2 17 33.2 18.28V49L29.024 51.4V20.68L22.784 24.28V55L18.608 57.4V26.68L12.416 30.28V61L8.24 63.4V32.68C8.24 31.816 8.432 30.92 8.816 29.992C9.2 29.032 9.712 28.152 10.352 27.352C10.992 26.52 11.68 25.896 12.416 25.48ZM29.024 20.68V51.4L24.848 49V18.28L29.024 20.68ZM18.608 26.68V57.4L14.48 55V24.28L18.608 26.68ZM31.904 15.64C31.072 15.16 30.112 15.24 29.024 15.88L12.416 25.48C11.68 25.896 10.992 26.52 10.352 27.352C9.712 28.152 9.2 29.032 8.816 29.992C8.432 30.92 8.24 31.816 8.24 32.68V63.4L4.064 61V30.28C4.064 29.416 4.256 28.52 4.64 27.592C5.024 26.632 5.536 25.752 6.176 24.952C6.816 24.12 7.504 23.496 8.24 23.08L24.848 13.48C25.968 12.84 26.944 12.76 27.776 13.24L31.904 15.64ZM45.6973 25.48L56.0653 19.48C57.1533 18.84 58.1133 18.76 58.9453 19.24C59.8093 19.72 60.2413 20.6 60.2413 21.88V52.6L56.0653 55V45.4L45.6973 51.4V61L41.5213 63.4V32.68C41.5213 31.816 41.7133 30.92 42.0973 29.992C42.4813 29.032 42.9933 28.152 43.6333 27.352C44.2733 26.52 44.9613 25.896 45.6973 25.48ZM56.0653 40.6V24.28L45.6973 30.28V46.6L56.0653 40.6ZM56.0653 45.4V55L51.8893 52.6V43L56.0653 45.4ZM56.0653 24.28V40.6L51.8893 38.2V21.88L56.0653 24.28ZM56.0653 40.6L45.6973 46.6L41.5213 44.2L51.8893 38.2L56.0653 40.6ZM58.9933 19.24C58.1293 18.76 57.1533 18.84 56.0653 19.48L45.6973 25.48C44.9613 25.896 44.2733 26.52 43.6333 27.352C42.9933 28.152 42.4813 29.032 42.0973 29.992C41.7133 30.92 41.5213 31.816 41.5213 32.68V63.4L37.3453 61V30.28C37.3453 29.416 37.5373 28.52 37.9213 27.592C38.3053 26.632 38.8173 25.752 39.4573 24.952C40.0973 24.12 40.7853 23.496 41.5213 23.08L51.8893 17.08C53.0093 16.44 53.9853 16.36 54.8173 16.84L58.9933 19.24ZM68.5681 29.8L72.7441 27.4V41.8L83.1121 35.8V21.4L87.2881 19V28.6C87.2881 29.432 87.0801 30.328 86.6641 31.288C86.2801 32.248 85.7681 33.144 85.1281 33.976C84.5201 34.776 83.8481 35.384 83.1121 35.8C84.2001 35.16 85.1601 35.08 85.9921 35.56C86.8561 36.04 87.2881 36.92 87.2881 38.2V52.6L83.1121 55V40.6L72.7441 46.6V61L68.5681 63.4V53.8C68.5681 52.936 68.7601 52.04 69.1441 51.112C69.5281 50.152 70.0401 49.272 70.6801 48.472C71.3201 47.64 72.0081 47.016 72.7441 46.6C71.6241 47.24 70.6481 47.32 69.8161 46.84C68.9841 46.36 68.5681 45.48 68.5681 44.2V29.8ZM83.1121 40.6V55L78.9361 52.6V38.2L83.1121 40.6ZM86.0401 35.56C85.1761 35.08 84.2001 35.16 83.1121 35.8L78.9361 33.4C80.0561 32.76 81.0321 32.68 81.8641 33.16L86.0401 35.56ZM87.2881 19L83.1121 21.4L78.9361 19L83.1121 16.6L87.2881 19ZM72.7441 46.6C72.0081 47.016 71.3201 47.64 70.6801 48.472C70.0401 49.272 69.5281 50.152 69.1441 51.112C68.7601 52.04 68.5681 52.936 68.5681 53.8V63.4L64.3921 61V51.4C64.3921 50.536 64.5841 49.64 64.9681 48.712C65.3521 47.752 65.8641 46.872 66.5041 46.072C67.1441 45.24 67.8321 44.616 68.5681 44.2L72.7441 46.6ZM83.1121 21.4V35.8L78.9361 33.4V19L83.1121 21.4ZM83.1121 35.8L72.7441 41.8L68.5681 39.4L78.9361 33.4L83.1121 35.8ZM72.7441 27.4L68.5681 29.8L64.3921 27.4L68.5681 25L72.7441 27.4ZM68.5681 29.8V44.2C68.5681 45.48 68.9841 46.36 69.8161 46.84L65.6401 44.44C64.8081 43.96 64.3921 43.08 64.3921 41.8V27.4L68.5681 29.8Z"/>
</mask>
<path d="M12.416 25.48L29.024 15.88C30.112 15.24 31.072 15.16 31.904 15.64C32.768 16.12 33.2 17 33.2 18.28V49L29.024 51.4V20.68L22.784 24.28V55L18.608 57.4V26.68L12.416 30.28V61L8.24 63.4V32.68C8.24 31.816 8.432 30.92 8.816 29.992C9.2 29.032 9.712 28.152 10.352 27.352C10.992 26.52 11.68 25.896 12.416 25.48ZM29.024 20.68V51.4L24.848 49V18.28L29.024 20.68ZM18.608 26.68V57.4L14.48 55V24.28L18.608 26.68ZM31.904 15.64C31.072 15.16 30.112 15.24 29.024 15.88L12.416 25.48C11.68 25.896 10.992 26.52 10.352 27.352C9.712 28.152 9.2 29.032 8.816 29.992C8.432 30.92 8.24 31.816 8.24 32.68V63.4L4.064 61V30.28C4.064 29.416 4.256 28.52 4.64 27.592C5.024 26.632 5.536 25.752 6.176 24.952C6.816 24.12 7.504 23.496 8.24 23.08L24.848 13.48C25.968 12.84 26.944 12.76 27.776 13.24L31.904 15.64ZM45.6973 25.48L56.0653 19.48C57.1533 18.84 58.1133 18.76 58.9453 19.24C59.8093 19.72 60.2413 20.6 60.2413 21.88V52.6L56.0653 55V45.4L45.6973 51.4V61L41.5213 63.4V32.68C41.5213 31.816 41.7133 30.92 42.0973 29.992C42.4813 29.032 42.9933 28.152 43.6333 27.352C44.2733 26.52 44.9613 25.896 45.6973 25.48ZM56.0653 40.6V24.28L45.6973 30.28V46.6L56.0653 40.6ZM56.0653 45.4V55L51.8893 52.6V43L56.0653 45.4ZM56.0653 24.28V40.6L51.8893 38.2V21.88L56.0653 24.28ZM56.0653 40.6L45.6973 46.6L41.5213 44.2L51.8893 38.2L56.0653 40.6ZM58.9933 19.24C58.1293 18.76 57.1533 18.84 56.0653 19.48L45.6973 25.48C44.9613 25.896 44.2733 26.52 43.6333 27.352C42.9933 28.152 42.4813 29.032 42.0973 29.992C41.7133 30.92 41.5213 31.816 41.5213 32.68V63.4L37.3453 61V30.28C37.3453 29.416 37.5373 28.52 37.9213 27.592C38.3053 26.632 38.8173 25.752 39.4573 24.952C40.0973 24.12 40.7853 23.496 41.5213 23.08L51.8893 17.08C53.0093 16.44 53.9853 16.36 54.8173 16.84L58.9933 19.24ZM68.5681 29.8L72.7441 27.4V41.8L83.1121 35.8V21.4L87.2881 19V28.6C87.2881 29.432 87.0801 30.328 86.6641 31.288C86.2801 32.248 85.7681 33.144 85.1281 33.976C84.5201 34.776 83.8481 35.384 83.1121 35.8C84.2001 35.16 85.1601 35.08 85.9921 35.56C86.8561 36.04 87.2881 36.92 87.2881 38.2V52.6L83.1121 55V40.6L72.7441 46.6V61L68.5681 63.4V53.8C68.5681 52.936 68.7601 52.04 69.1441 51.112C69.5281 50.152 70.0401 49.272 70.6801 48.472C71.3201 47.64 72.0081 47.016 72.7441 46.6C71.6241 47.24 70.6481 47.32 69.8161 46.84C68.9841 46.36 68.5681 45.48 68.5681 44.2V29.8ZM83.1121 40.6V55L78.9361 52.6V38.2L83.1121 40.6ZM86.0401 35.56C85.1761 35.08 84.2001 35.16 83.1121 35.8L78.9361 33.4C80.0561 32.76 81.0321 32.68 81.8641 33.16L86.0401 35.56ZM87.2881 19L83.1121 21.4L78.9361 19L83.1121 16.6L87.2881 19ZM72.7441 46.6C72.0081 47.016 71.3201 47.64 70.6801 48.472C70.0401 49.272 69.5281 50.152 69.1441 51.112C68.7601 52.04 68.5681 52.936 68.5681 53.8V63.4L64.3921 61V51.4C64.3921 50.536 64.5841 49.64 64.9681 48.712C65.3521 47.752 65.8641 46.872 66.5041 46.072C67.1441 45.24 67.8321 44.616 68.5681 44.2L72.7441 46.6ZM83.1121 21.4V35.8L78.9361 33.4V19L83.1121 21.4ZM83.1121 35.8L72.7441 41.8L68.5681 39.4L78.9361 33.4L83.1121 35.8ZM72.7441 27.4L68.5681 29.8L64.3921 27.4L68.5681 25L72.7441 27.4ZM68.5681 29.8V44.2C68.5681 45.48 68.9841 46.36 69.8161 46.84L65.6401 44.44C64.8081 43.96 64.3921 43.08 64.3921 41.8V27.4L68.5681 29.8Z" fill="black"/>
<path d="M12.416 25.48L12.9081 26.3506L12.9164 26.3458L12.416 25.48ZM29.024 15.88L29.5245 16.7458L29.531 16.7419L29.024 15.88ZM31.904 15.64L31.4043 16.5062L31.4113 16.5102L31.4184 16.5142L31.904 15.64ZM33.2 49L33.6983 49.867L34.2 49.5787V49H33.2ZM29.024 51.4H28.024V53.1281L29.5223 52.267L29.024 51.4ZM29.024 20.68H30.024V18.9486L28.5243 19.8138L29.024 20.68ZM22.784 24.28L22.2843 23.4138L21.784 23.7024V24.28H22.784ZM22.784 55L23.2823 55.867L23.784 55.5787V55H22.784ZM18.608 57.4H17.608V59.1281L19.1063 58.267L18.608 57.4ZM18.608 26.68H19.608V24.9419L18.1054 25.8155L18.608 26.68ZM12.416 30.28L11.9134 29.4155L11.416 29.7047V30.28H12.416ZM12.416 61L12.9143 61.867L13.416 61.5787V61H12.416ZM8.24 63.4H7.24V65.1281L8.73828 64.267L8.24 63.4ZM8.816 29.992L9.74008 30.3744L9.74448 30.3634L8.816 29.992ZM10.352 27.352L11.1329 27.9767L11.1388 27.9693L11.1446 27.9617L10.352 27.352ZM29.024 20.68H30.024V20.1013L29.5223 19.813L29.024 20.68ZM29.024 51.4L28.5257 52.267L30.024 53.1281V51.4H29.024ZM24.848 49H23.848V49.5787L24.3497 49.867L24.848 49ZM24.848 18.28L25.3463 17.413L23.848 16.5519V18.28H24.848ZM18.608 26.68H19.608V26.1047L19.1106 25.8155L18.608 26.68ZM18.608 57.4L18.1054 58.2645L19.608 59.1381V57.4H18.608ZM14.48 55H13.48V55.5753L13.9774 55.8645L14.48 55ZM14.48 24.28L14.9826 23.4155L13.48 22.5419V24.28H14.48ZM31.904 15.64L31.4043 16.5062L32.4066 14.7755L31.904 15.64ZM29.024 15.88L29.5245 16.7458L29.531 16.7419L29.024 15.88ZM12.416 25.48L12.9081 26.3506L12.9164 26.3458L12.416 25.48ZM10.352 27.352L11.1329 27.9767L11.1388 27.9693L11.1446 27.9617L10.352 27.352ZM8.816 29.992L9.74008 30.3744L9.74448 30.3634L8.816 29.992ZM8.24 63.4L7.74172 64.267L9.24 65.1281V63.4H8.24ZM4.064 61H3.064V61.5787L3.56572 61.867L4.064 61ZM4.64 27.592L5.56408 27.9744L5.56848 27.9634L4.64 27.592ZM6.176 24.952L6.95687 25.5767L6.96282 25.5693L6.96862 25.5617L6.176 24.952ZM8.24 23.08L8.73208 23.9506L8.74045 23.9458L8.24 23.08ZM24.848 13.48L24.3519 12.6117L24.3476 12.6142L24.848 13.48ZM27.776 13.24L28.2786 12.3755L28.2757 12.3738L27.776 13.24ZM12.9164 26.3458L29.5244 16.7458L28.5236 15.0142L11.9156 24.6142L12.9164 26.3458ZM29.531 16.7419C30.4206 16.2186 30.9824 16.2628 31.4043 16.5062L32.4037 14.7738C31.1616 14.0572 29.8034 14.2614 28.517 15.0181L29.531 16.7419ZM31.4184 16.5142C31.8694 16.7648 32.2 17.239 32.2 18.28H34.2C34.2 16.761 33.6666 15.4752 32.3896 14.7658L31.4184 16.5142ZM32.2 18.28V49H34.2V18.28H32.2ZM32.7017 48.133L28.5257 50.533L29.5223 52.267L33.6983 49.867L32.7017 48.133ZM30.024 51.4V20.68H28.024V51.4H30.024ZM28.5243 19.8138L22.2843 23.4138L23.2837 25.1462L29.5237 21.5462L28.5243 19.8138ZM21.784 24.28V55H23.784V24.28H21.784ZM22.2857 54.133L18.1097 56.533L19.1063 58.267L23.2823 55.867L22.2857 54.133ZM19.608 57.4V26.68H17.608V57.4H19.608ZM18.1054 25.8155L11.9134 29.4155L12.9186 31.1445L19.1106 27.5445L18.1054 25.8155ZM11.416 30.28V61H13.416V30.28H11.416ZM11.9177 60.133L7.74172 62.533L8.73828 64.267L12.9143 61.867L11.9177 60.133ZM9.24 63.4V32.68H7.24V63.4H9.24ZM9.24 32.68C9.24 31.9667 9.39813 31.2006 9.74002 30.3743L7.89198 29.6096C7.46587 30.6394 7.24 31.6653 7.24 32.68H9.24ZM9.74448 30.3634C10.0923 29.4938 10.5548 28.6993 11.1329 27.9767L9.57113 26.7273C8.86918 27.6047 8.30767 28.5702 7.88752 29.6206L9.74448 30.3634ZM11.1446 27.9617C11.7221 27.2111 12.3132 26.6868 12.9081 26.3506L11.9239 24.6094C11.0468 25.1052 10.2619 25.8289 9.55938 26.7423L11.1446 27.9617ZM28.024 20.68V51.4H30.024V20.68H28.024ZM29.5223 50.533L25.3463 48.133L24.3497 49.867L28.5257 52.267L29.5223 50.533ZM25.848 49V18.28H23.848V49H25.848ZM24.3497 19.147L28.5257 21.547L29.5223 19.813L25.3463 17.413L24.3497 19.147ZM17.608 26.68V57.4H19.608V26.68H17.608ZM19.1106 56.5355L14.9826 54.1355L13.9774 55.8645L18.1054 58.2645L19.1106 56.5355ZM15.48 55V24.28H13.48V55H15.48ZM13.9774 25.1445L18.1054 27.5445L19.1106 25.8155L14.9826 23.4155L13.9774 25.1445ZM32.4037 14.7738C31.1616 14.0572 29.8034 14.2614 28.517 15.0181L29.531 16.7419C30.4206 16.2186 30.9824 16.2628 31.4043 16.5062L32.4037 14.7738ZM28.5236 15.0142L11.9156 24.6142L12.9164 26.3458L29.5244 16.7458L28.5236 15.0142ZM11.9239 24.6094C11.0468 25.1052 10.2619 25.8289 9.55938 26.7423L11.1446 27.9617C11.7221 27.2111 12.3132 26.6868 12.9081 26.3506L11.9239 24.6094ZM9.57113 26.7273C8.86918 27.6047 8.30767 28.5702 7.88752 29.6206L9.74448 30.3634C10.0923 29.4938 10.5548 28.6993 11.1329 27.9767L9.57113 26.7273ZM7.89198 29.6096C7.46587 30.6394 7.24 31.6653 7.24 32.68H9.24C9.24 31.9667 9.39813 31.2006 9.74002 30.3743L7.89198 29.6096ZM7.24 32.68V63.4H9.24V32.68H7.24ZM8.73828 62.533L4.56228 60.133L3.56572 61.867L7.74172 64.267L8.73828 62.533ZM5.064 61V30.28H3.064V61H5.064ZM5.064 30.28C5.064 29.5667 5.22213 28.8006 5.56402 27.9743L3.71598 27.2096C3.28987 28.2394 3.064 29.2653 3.064 30.28H5.064ZM5.56848 27.9634C5.91633 27.0938 6.37882 26.2993 6.95687 25.5767L5.39513 24.3273C4.69318 25.2047 4.13167 26.1702 3.71152 27.2206L5.56848 27.9634ZM6.96862 25.5617C7.54605 24.8111 8.13723 24.2868 8.73206 23.9506L7.74794 22.2094C6.87077 22.7052 6.08595 23.4289 5.38338 24.3423L6.96862 25.5617ZM8.74045 23.9458L25.3484 14.3458L24.3476 12.6142L7.73956 22.2142L8.74045 23.9458ZM25.3441 14.3482C26.2754 13.8161 26.8556 13.8635 27.2763 14.1062L28.2757 12.3738C27.0324 11.6565 25.6606 11.8639 24.3519 12.6118L25.3441 14.3482ZM27.2734 14.1045L31.4014 16.5045L32.4066 14.7755L28.2786 12.3755L27.2734 14.1045ZM45.6973 25.48L46.1893 26.3506L46.1981 26.3455L45.6973 25.48ZM56.0653 19.48L56.5661 20.3455L56.5723 20.3419L56.0653 19.48ZM58.9453 19.24L58.4455 20.1062L58.4525 20.1102L58.4596 20.1142L58.9453 19.24ZM60.2413 52.6L60.7395 53.467L61.2413 53.1787V52.6H60.2413ZM56.0653 55H55.0653V56.7281L56.5635 55.867L56.0653 55ZM56.0653 45.4H57.0653V43.6659L55.5644 44.5345L56.0653 45.4ZM45.6973 51.4L45.1964 50.5345L44.6973 50.8233V51.4H45.6973ZM45.6973 61L46.1955 61.867L46.6973 61.5787V61H45.6973ZM41.5213 63.4H40.5213V65.1281L42.0195 64.267L41.5213 63.4ZM42.0973 29.992L43.0213 30.3744L43.0257 30.3634L42.0973 29.992ZM43.6333 27.352L44.4141 27.9767L44.4201 27.9693L44.4259 27.9617L43.6333 27.352ZM56.0653 40.6L56.5661 41.4655L57.0653 41.1767V40.6H56.0653ZM56.0653 24.28H57.0653V22.5459L55.5644 23.4145L56.0653 24.28ZM45.6973 30.28L45.1964 29.4145L44.6973 29.7033V30.28H45.6973ZM45.6973 46.6H44.6973V48.3341L46.1981 47.4655L45.6973 46.6ZM56.0653 45.4H57.0653V44.8213L56.5635 44.533L56.0653 45.4ZM56.0653 55L55.567 55.867L57.0653 56.7281V55H56.0653ZM51.8893 52.6H50.8893V53.1787L51.391 53.467L51.8893 52.6ZM51.8893 43L52.3875 42.133L50.8893 41.2719V43H51.8893ZM56.0653 24.28H57.0653V23.7013L56.5635 23.413L56.0653 24.28ZM56.0653 40.6L55.567 41.467L57.0653 42.3281V40.6H56.0653ZM51.8893 38.2H50.8893V38.7787L51.391 39.067L51.8893 38.2ZM51.8893 21.88L52.3875 21.013L50.8893 20.1519V21.88H51.8893ZM56.0653 40.6L56.5661 41.4655L58.0669 40.597L56.5635 39.733L56.0653 40.6ZM45.6973 46.6L45.199 47.467L45.699 47.7544L46.1981 47.4655L45.6973 46.6ZM41.5213 44.2L41.0204 43.3345L39.5196 44.203L41.023 45.067L41.5213 44.2ZM51.8893 38.2L52.3875 37.333L51.8875 37.0456L51.3884 37.3345L51.8893 38.2ZM58.9933 19.24L58.5076 20.1142L59.4915 18.373L58.9933 19.24ZM56.0653 19.48L56.5661 20.3455L56.5723 20.3419L56.0653 19.48ZM45.6973 25.48L46.1893 26.3506L46.1981 26.3455L45.6973 25.48ZM43.6333 27.352L44.4141 27.9767L44.4201 27.9693L44.4259 27.9617L43.6333 27.352ZM42.0973 29.992L43.0213 30.3744L43.0257 30.3634L42.0973 29.992ZM41.5213 63.4L41.023 64.267L42.5213 65.1281V63.4H41.5213ZM37.3452 61H36.3452V61.5787L36.847 61.867L37.3452 61ZM37.9212 27.592L38.8453 27.9744L38.8497 27.9634L37.9212 27.592ZM39.4572 24.952L40.2381 25.5767L40.2441 25.5693L40.2499 25.5617L39.4572 24.952ZM41.5213 23.08L42.0133 23.9506L42.0221 23.9455L41.5213 23.08ZM51.8893 17.08L51.3931 16.2117L51.3884 16.2145L51.8893 17.08ZM54.8172 16.84L54.3175 17.7062L54.319 17.707L54.8172 16.84ZM46.1981 26.3455L56.5661 20.3455L55.5644 18.6145L45.1964 24.6145L46.1981 26.3455ZM56.5723 20.3419C57.4619 19.8186 58.0236 19.8628 58.4455 20.1062L59.445 18.3738C58.2029 17.6572 56.8446 17.8614 55.5582 18.6181L56.5723 20.3419ZM58.4596 20.1142C58.9107 20.3648 59.2413 20.839 59.2413 21.88H61.2413C61.2413 20.361 60.7078 19.0752 59.4309 18.3658L58.4596 20.1142ZM59.2413 21.88V52.6H61.2413V21.88H59.2413ZM59.743 51.733L55.567 54.133L56.5635 55.867L60.7395 53.467L59.743 51.733ZM57.0653 55V45.4H55.0653V55H57.0653ZM55.5644 44.5345L45.1964 50.5345L46.1981 52.2655L56.5661 46.2655L55.5644 44.5345ZM44.6973 51.4V61H46.6973V51.4H44.6973ZM45.199 60.133L41.023 62.533L42.0195 64.267L46.1955 61.867L45.199 60.133ZM42.5213 63.4V32.68H40.5213V63.4H42.5213ZM42.5213 32.68C42.5213 31.9667 42.6794 31.2006 43.0213 30.3743L41.1732 29.6096C40.7471 30.6394 40.5213 31.6653 40.5213 32.68H42.5213ZM43.0257 30.3634C43.3736 29.4938 43.8361 28.6993 44.4141 27.9767L42.8524 26.7273C42.1504 27.6047 41.5889 28.5702 41.1688 29.6206L43.0257 30.3634ZM44.4259 27.9617C45.0033 27.2111 45.5945 26.6868 46.1893 26.3506L45.2052 24.6094C44.328 25.1052 43.5432 25.8289 42.8406 26.7423L44.4259 27.9617ZM57.0653 40.6V24.28H55.0653V40.6H57.0653ZM55.5644 23.4145L45.1964 29.4145L46.1981 31.1455L56.5661 25.1455L55.5644 23.4145ZM44.6973 30.28V46.6H46.6973V30.28H44.6973ZM46.1981 47.4655L56.5661 41.4655L55.5644 39.7345L45.1964 45.7345L46.1981 47.4655ZM55.0653 45.4V55H57.0653V45.4H55.0653ZM56.5635 54.133L52.3875 51.733L51.391 53.467L55.567 55.867L56.5635 54.133ZM52.8893 52.6V43H50.8893V52.6H52.8893ZM51.391 43.867L55.567 46.267L56.5635 44.533L52.3875 42.133L51.391 43.867ZM55.0653 24.28V40.6H57.0653V24.28H55.0653ZM56.5635 39.733L52.3875 37.333L51.391 39.067L55.567 41.467L56.5635 39.733ZM52.8893 38.2V21.88H50.8893V38.2H52.8893ZM51.391 22.747L55.567 25.147L56.5635 23.413L52.3875 21.013L51.391 22.747ZM55.5644 39.7345L45.1964 45.7345L46.1981 47.4655L56.5661 41.4655L55.5644 39.7345ZM46.1955 45.733L42.0195 43.333L41.023 45.067L45.199 47.467L46.1955 45.733ZM42.0221 45.0655L52.3901 39.0655L51.3884 37.3345L41.0204 43.3345L42.0221 45.0655ZM51.391 39.067L55.567 41.467L56.5635 39.733L52.3875 37.333L51.391 39.067ZM59.4789 18.3658C58.2177 17.6652 56.8541 17.8558 55.5582 18.6181L56.5723 20.3419C57.4524 19.8242 58.0408 19.8548 58.5076 20.1142L59.4789 18.3658ZM55.5644 18.6145L45.1964 24.6145L46.1981 26.3455L56.5661 20.3455L55.5644 18.6145ZM45.2052 24.6094C44.328 25.1052 43.5432 25.8289 42.8406 26.7423L44.4259 27.9617C45.0033 27.2111 45.5945 26.6868 46.1893 26.3506L45.2052 24.6094ZM42.8524 26.7273C42.1504 27.6047 41.5889 28.5702 41.1688 29.6206L43.0257 30.3634C43.3736 29.4938 43.8361 28.6993 44.4141 27.9767L42.8524 26.7273ZM41.1732 29.6096C40.7471 30.6394 40.5213 31.6653 40.5213 32.68H42.5213C42.5213 31.9667 42.6794 31.2006 43.0213 30.3743L41.1732 29.6096ZM40.5213 32.68V63.4H42.5213V32.68H40.5213ZM42.0195 62.533L37.8435 60.133L36.847 61.867L41.023 64.267L42.0195 62.533ZM38.3452 61V30.28H36.3452V61H38.3452ZM38.3452 30.28C38.3452 29.5667 38.5034 28.8006 38.8453 27.9743L36.9972 27.2096C36.5711 28.2394 36.3452 29.2653 36.3452 30.28H38.3452ZM38.8497 27.9634C39.1976 27.0938 39.6601 26.2993 40.2381 25.5767L38.6764 24.3273C37.9744 25.2047 37.4129 26.1702 36.9928 27.2206L38.8497 27.9634ZM40.2499 25.5617C40.8273 24.8111 41.4185 24.2868 42.0133 23.9506L41.0292 22.2094C40.152 22.7052 39.3672 23.4289 38.6646 24.3423L40.2499 25.5617ZM42.0221 23.9455L52.3901 17.9455L51.3884 16.2145L41.0204 22.2145L42.0221 23.9455ZM52.3854 17.9482C53.3166 17.4161 53.8969 17.4635 54.3175 17.7062L55.317 15.9738C54.0736 15.2565 52.7019 15.4639 51.3931 16.2118L52.3854 17.9482ZM54.319 17.707L58.495 20.107L59.4915 18.373L55.3155 15.973L54.319 17.707ZM68.5681 29.8L68.0698 28.933L67.5681 29.2213V29.8H68.5681ZM72.7441 27.4H73.7441V25.6719L72.2458 26.533L72.7441 27.4ZM72.7441 41.8H71.7441V43.5341L73.245 42.6655L72.7441 41.8ZM83.1121 35.8L83.613 36.6655L84.1121 36.3767V35.8H83.1121ZM83.1121 21.4L82.6138 20.533L82.1121 20.8213V21.4H83.1121ZM87.2881 19H88.2881V17.2719L86.7898 18.133L87.2881 19ZM86.6641 31.288L85.7466 30.8904L85.7409 30.9034L85.7356 30.9166L86.6641 31.288ZM85.1281 33.976L84.3355 33.3663L84.332 33.3709L85.1281 33.976ZM83.1121 35.8L82.6051 34.9381L83.6042 36.6706L83.1121 35.8ZM85.9921 35.56L85.4924 36.4262L85.4994 36.4302L85.5065 36.4342L85.9921 35.56ZM87.2881 52.6L87.7864 53.467L88.2881 53.1787V52.6H87.2881ZM83.1121 55H82.1121V56.7281L83.6104 55.867L83.1121 55ZM83.1121 40.6H84.1121V38.8659L82.6113 39.7345L83.1121 40.6ZM72.7441 46.6L72.2432 45.7345L71.7441 46.0233V46.6H72.7441ZM72.7441 61L73.2424 61.867L73.7441 61.5787V61H72.7441ZM68.5681 63.4H67.5681V65.1281L69.0664 64.267L68.5681 63.4ZM69.1441 51.112L70.0682 51.4944L70.0726 51.4834L69.1441 51.112ZM70.6801 48.472L71.461 49.0967L71.4669 49.0893L71.4727 49.0817L70.6801 48.472ZM72.7441 46.6L73.2403 47.4682L72.2521 45.7294L72.7441 46.6ZM69.8161 46.84L70.3158 45.9738L69.8161 46.84ZM83.1121 40.6H84.1121V40.0213L83.6104 39.733L83.1121 40.6ZM83.1121 55L82.6138 55.867L84.1121 56.7281V55H83.1121ZM78.9361 52.6H77.9361V53.1787L78.4378 53.467L78.9361 52.6ZM78.9361 38.2L79.4344 37.333L77.9361 36.4719V38.2H78.9361ZM86.0401 35.56L85.5545 36.4342L86.5384 34.693L86.0401 35.56ZM83.1121 35.8L82.6138 36.667L83.118 36.9567L83.6191 36.6619L83.1121 35.8ZM78.9361 33.4L78.44 32.5318L76.9249 33.3975L78.4378 34.267L78.9361 33.4ZM81.8641 33.16L81.3644 34.0262L81.3658 34.027L81.8641 33.16ZM87.2881 19L87.7864 19.867L89.295 19L87.7864 18.133L87.2881 19ZM83.1121 21.4L82.6138 22.267L83.1121 22.5534L83.6104 22.267L83.1121 21.4ZM78.9361 19L78.4378 18.133L76.9292 19L78.4378 19.867L78.9361 19ZM83.1121 16.6L83.6104 15.733L83.1121 15.4466L82.6138 15.733L83.1121 16.6ZM72.7441 46.6L73.2362 47.4706L74.7636 46.6072L73.2424 45.733L72.7441 46.6ZM70.6801 48.472L71.461 49.0967L71.4669 49.0893L71.4727 49.0817L70.6801 48.472ZM69.1441 51.112L70.0682 51.4944L70.0726 51.4834L69.1441 51.112ZM68.5681 63.4L68.0698 64.267L69.5681 65.1281V63.4H68.5681ZM64.3921 61H63.3921V61.5787L63.8938 61.867L64.3921 61ZM64.9681 48.712L65.8922 49.0944L65.8966 49.0834L64.9681 48.712ZM66.5041 46.072L67.285 46.6967L67.2909 46.6893L67.2967 46.6817L66.5041 46.072ZM68.5681 44.2L69.0664 43.333L68.5723 43.049L68.0761 43.3294L68.5681 44.2ZM83.1121 21.4H84.1121V20.8213L83.6104 20.533L83.1121 21.4ZM83.1121 35.8L82.6138 36.667L84.1121 37.5281V35.8H83.1121ZM78.9361 33.4H77.9361V33.9787L78.4378 34.267L78.9361 33.4ZM78.9361 19L79.4344 18.133L77.9361 17.2719V19H78.9361ZM83.1121 35.8L83.613 36.6655L85.1138 35.797L83.6104 34.933L83.1121 35.8ZM72.7441 41.8L72.2458 42.667L72.7459 42.9544L73.245 42.6655L72.7441 41.8ZM68.5681 39.4L68.0672 38.5345L66.5665 39.403L68.0698 40.267L68.5681 39.4ZM78.9361 33.4L79.4344 32.533L78.9344 32.2456L78.4352 32.5345L78.9361 33.4ZM72.7441 27.4L73.2424 28.267L74.751 27.4L73.2424 26.533L72.7441 27.4ZM68.5681 29.8L68.0698 30.667L68.5681 30.9534L69.0664 30.667L68.5681 29.8ZM64.3921 27.4L63.8938 26.533L62.3852 27.4L63.8938 28.267L64.3921 27.4ZM68.5681 25L69.0664 24.133L68.5681 23.8466L68.0698 24.133L68.5681 25ZM68.5681 29.8H69.5681V29.2213L69.0664 28.933L68.5681 29.8ZM69.8161 46.84L69.3178 47.707L70.3158 45.9738L69.8161 46.84ZM65.6401 44.44L65.1404 45.3062L65.1418 45.307L65.6401 44.44ZM64.3921 27.4L64.8904 26.533L63.3921 25.6719V27.4H64.3921ZM69.0664 30.667L73.2424 28.267L72.2458 26.533L68.0698 28.933L69.0664 30.667ZM71.7441 27.4V41.8H73.7441V27.4H71.7441ZM73.245 42.6655L83.613 36.6655L82.6112 34.9345L72.2432 40.9345L73.245 42.6655ZM84.1121 35.8V21.4H82.1121V35.8H84.1121ZM83.6104 22.267L87.7864 19.867L86.7898 18.133L82.6138 20.533L83.6104 22.267ZM86.2881 19V28.6H88.2881V19H86.2881ZM86.2881 28.6C86.2881 29.2649 86.1217 30.0247 85.7466 30.8904L87.5817 31.6856C88.0385 30.6313 88.2881 29.5991 88.2881 28.6H86.2881ZM85.7356 30.9166C85.3863 31.79 84.9203 32.606 84.3355 33.3663L85.9208 34.5857C86.6159 33.682 87.174 32.706 87.5926 31.6594L85.7356 30.9166ZM84.332 33.3709C83.791 34.0827 83.2176 34.5917 82.6201 34.9294L83.6042 36.6706C84.4787 36.1763 85.2493 35.4693 85.9243 34.5811L84.332 33.3709ZM83.6191 36.6619C84.5088 36.1386 85.0705 36.1828 85.4924 36.4262L86.4919 34.6938C85.2497 33.9772 83.8915 34.1814 82.6051 34.9381L83.6191 36.6619ZM85.5065 36.4342C85.9576 36.6848 86.2881 37.159 86.2881 38.2H88.2881C88.2881 36.681 87.7547 35.3952 86.4778 34.6858L85.5065 36.4342ZM86.2881 38.2V52.6H88.2881V38.2H86.2881ZM86.7898 51.733L82.6138 54.133L83.6104 55.867L87.7864 53.467L86.7898 51.733ZM84.1121 55V40.6H82.1121V55H84.1121ZM82.6113 39.7345L72.2432 45.7345L73.245 47.4655L83.613 41.4655L82.6113 39.7345ZM71.7441 46.6V61H73.7441V46.6H71.7441ZM72.2458 60.133L68.0698 62.533L69.0664 64.267L73.2424 61.867L72.2458 60.133ZM69.5681 63.4V53.8H67.5681V63.4H69.5681ZM69.5681 53.8C69.5681 53.0867 69.7263 52.3206 70.0681 51.4944L68.2201 50.7296C67.794 51.7594 67.5681 52.7853 67.5681 53.8H69.5681ZM70.0726 51.4834C70.4205 50.6138 70.8829 49.8193 71.461 49.0967L69.8993 47.8473C69.1973 48.7247 68.6358 49.6902 68.2156 50.7406L70.0726 51.4834ZM71.4727 49.0817C72.0502 48.3311 72.6414 47.8068 73.2362 47.4706L72.2521 45.7294C71.3749 46.2252 70.5901 46.9489 69.8875 47.8623L71.4727 49.0817ZM72.248 45.7318C71.3167 46.2639 70.7365 46.2165 70.3158 45.9738L69.3164 47.7062C70.5598 48.4235 71.9315 48.2161 73.2403 47.4682L72.248 45.7318ZM70.3158 45.9738C69.8951 45.7311 69.5681 45.258 69.5681 44.2H67.5681C67.5681 45.702 68.0732 46.9889 69.3164 47.7062L70.3158 45.9738ZM69.5681 44.2V29.8H67.5681V44.2H69.5681ZM82.1121 40.6V55H84.1121V40.6H82.1121ZM83.6104 54.133L79.4344 51.733L78.4378 53.467L82.6138 55.867L83.6104 54.133ZM79.9361 52.6V38.2H77.9361V52.6H79.9361ZM78.4378 39.067L82.6138 41.467L83.6104 39.733L79.4344 37.333L78.4378 39.067ZM86.5258 34.6858C85.2645 33.9852 83.901 34.1758 82.6051 34.9381L83.6191 36.6619C84.4993 36.1442 85.0877 36.1748 85.5545 36.4342L86.5258 34.6858ZM83.6104 34.933L79.4344 32.533L78.4378 34.267L82.6138 36.667L83.6104 34.933ZM79.4323 34.2682C80.3635 33.7361 80.9438 33.7835 81.3644 34.0262L82.3638 32.2938C81.1205 31.5765 79.7487 31.7839 78.44 32.5318L79.4323 34.2682ZM81.3658 34.027L85.5418 36.427L86.5384 34.693L82.3624 32.293L81.3658 34.027ZM86.7898 18.133L82.6138 20.533L83.6104 22.267L87.7864 19.867L86.7898 18.133ZM83.6104 20.533L79.4344 18.133L78.4378 19.867L82.6138 22.267L83.6104 20.533ZM79.4344 19.867L83.6104 17.467L82.6138 15.733L78.4378 18.133L79.4344 19.867ZM82.6138 17.467L86.7898 19.867L87.7864 18.133L83.6104 15.733L82.6138 17.467ZM72.2521 45.7294C71.3749 46.2252 70.5901 46.9489 69.8875 47.8623L71.4727 49.0817C72.0502 48.3311 72.6414 47.8068 73.2362 47.4706L72.2521 45.7294ZM69.8993 47.8473C69.1973 48.7247 68.6358 49.6902 68.2156 50.7406L70.0726 51.4834C70.4205 50.6138 70.8829 49.8193 71.461 49.0967L69.8993 47.8473ZM68.2201 50.7296C67.794 51.7594 67.5681 52.7853 67.5681 53.8H69.5681C69.5681 53.0867 69.7263 52.3206 70.0681 51.4944L68.2201 50.7296ZM67.5681 53.8V63.4H69.5681V53.8H67.5681ZM69.0664 62.533L64.8904 60.133L63.8938 61.867L68.0698 64.267L69.0664 62.533ZM65.3921 61V51.4H63.3921V61H65.3921ZM65.3921 51.4C65.3921 50.6867 65.5503 49.9206 65.8921 49.0944L64.0441 48.3296C63.618 49.3594 63.3921 50.3853 63.3921 51.4H65.3921ZM65.8966 49.0834C66.2445 48.2138 66.7069 47.4193 67.285 46.6967L65.7233 45.4473C65.0213 46.3247 64.4598 47.2902 64.0396 48.3406L65.8966 49.0834ZM67.2967 46.6817C67.8742 45.9311 68.4654 45.4068 69.0602 45.0706L68.0761 43.3294C67.1989 43.8252 66.4141 44.5489 65.7115 45.4623L67.2967 46.6817ZM68.0698 45.067L72.2458 47.467L73.2424 45.733L69.0664 43.333L68.0698 45.067ZM82.1121 21.4V35.8H84.1121V21.4H82.1121ZM83.6104 34.933L79.4344 32.533L78.4378 34.267L82.6138 36.667L83.6104 34.933ZM79.9361 33.4V19H77.9361V33.4H79.9361ZM78.4378 19.867L82.6138 22.267L83.6104 20.533L79.4344 18.133L78.4378 19.867ZM82.6112 34.9345L72.2432 40.9345L73.245 42.6655L83.613 36.6655L82.6112 34.9345ZM73.2424 40.933L69.0664 38.533L68.0698 40.267L72.2458 42.667L73.2424 40.933ZM69.069 40.2655L79.437 34.2655L78.4352 32.5345L68.0672 38.5345L69.069 40.2655ZM78.4378 34.267L82.6138 36.667L83.6104 34.933L79.4344 32.533L78.4378 34.267ZM72.2458 26.533L68.0698 28.933L69.0664 30.667L73.2424 28.267L72.2458 26.533ZM69.0664 28.933L64.8904 26.533L63.8938 28.267L68.0698 30.667L69.0664 28.933ZM64.8904 28.267L69.0664 25.867L68.0698 24.133L63.8938 26.533L64.8904 28.267ZM68.0698 25.867L72.2458 28.267L73.2424 26.533L69.0664 24.133L68.0698 25.867ZM67.5681 29.8V44.2H69.5681V29.8H67.5681ZM67.5681 44.2C67.5681 45.702 68.0732 46.9889 69.3164 47.7062L70.3158 45.9738C69.8951 45.7311 69.5681 45.258 69.5681 44.2H67.5681ZM70.3144 45.973L66.1384 43.573L65.1418 45.307L69.3178 47.707L70.3144 45.973ZM66.1398 43.5738C65.7191 43.3311 65.3921 42.858 65.3921 41.8H63.3921C63.3921 43.302 63.8972 44.5889 65.1404 45.3062L66.1398 43.5738ZM65.3921 41.8V27.4H63.3921V41.8H65.3921ZM63.8938 28.267L68.0698 30.667L69.0664 28.933L64.8904 26.533L63.8938 28.267Z" fill="#0F5CBF" mask="url(#path-1-outside-1_30_137)"/>
</g>
<mask id="path-3-outside-2_30_137" maskUnits="userSpaceOnUse" x="1" y="14" width="90" height="55" fill="black">
<rect fill="white" x="1" y="14" width="90" height="55"/>
<path d="M10.85 28L28.15 18C29.2833 17.3333 30.2833 17.25 31.15 17.75C32.05 18.25 32.5 19.1667 32.5 20.5V52.5L28.15 55V23L21.65 26.75V58.75L17.3 61.25V29.25L10.85 33V65L6.5 67.5V35.5C6.5 34.6 6.7 33.6667 7.1 32.7C7.5 31.7 8.03333 30.7833 8.7 29.95C9.36667 29.0833 10.0833 28.4333 10.85 28ZM28.15 23V55L23.8 52.5V20.5L28.15 23ZM17.3 29.25V61.25L13 58.75V26.75L17.3 29.25ZM31.15 17.75C30.2833 17.25 29.2833 17.3333 28.15 18L10.85 28C10.0833 28.4333 9.36667 29.0833 8.7 29.95C8.03333 30.7833 7.5 31.7 7.1 32.7C6.7 33.6667 6.5 34.6 6.5 35.5V67.5L2.15 65V33C2.15 32.1 2.35 31.1667 2.75 30.2C3.15 29.2 3.68333 28.2833 4.35 27.45C5.01667 26.5833 5.73333 25.9333 6.5 25.5L23.8 15.5C24.9667 14.8333 25.9833 14.75 26.85 15.25L31.15 17.75ZM45.518 28L56.318 21.75C57.4513 21.0833 58.4513 21 59.318 21.5C60.218 22 60.668 22.9167 60.668 24.25V56.25L56.318 58.75V48.75L45.518 55V65L41.168 67.5V35.5C41.168 34.6 41.368 33.6667 41.768 32.7C42.168 31.7 42.7013 30.7833 43.368 29.95C44.0346 29.0833 44.7513 28.4333 45.518 28ZM56.318 43.75V26.75L45.518 33V50L56.318 43.75ZM56.318 48.75V58.75L51.968 56.25V46.25L56.318 48.75ZM56.318 26.75V43.75L51.968 41.25V24.25L56.318 26.75ZM56.318 43.75L45.518 50L41.168 47.5L51.968 41.25L56.318 43.75ZM59.368 21.5C58.468 21 57.4513 21.0833 56.318 21.75L45.518 28C44.7513 28.4333 44.0346 29.0833 43.368 29.95C42.7013 30.7833 42.168 31.7 41.768 32.7C41.368 33.6667 41.168 34.6 41.168 35.5V67.5L36.818 65V33C36.818 32.1 37.018 31.1667 37.418 30.2C37.818 29.2 38.3513 28.2833 39.018 27.45C39.6846 26.5833 40.4013 25.9333 41.168 25.5L51.968 19.25C53.1346 18.5833 54.1513 18.5 55.018 19L59.368 21.5ZM69.3418 32.5L73.6918 30V45L84.4918 38.75V23.75L88.8418 21.25V31.25C88.8418 32.1167 88.6251 33.05 88.1918 34.05C87.7918 35.05 87.2585 35.9833 86.5918 36.85C85.9585 37.6833 85.2585 38.3167 84.4918 38.75C85.6251 38.0833 86.6251 38 87.4918 38.5C88.3918 39 88.8418 39.9167 88.8418 41.25V56.25L84.4918 58.75V43.75L73.6918 50V65L69.3418 67.5V57.5C69.3418 56.6 69.5418 55.6667 69.9418 54.7C70.3418 53.7 70.8751 52.7833 71.5418 51.95C72.2085 51.0833 72.9251 50.4333 73.6918 50C72.5251 50.6667 71.5085 50.75 70.6418 50.25C69.7751 49.75 69.3418 48.8333 69.3418 47.5V32.5ZM84.4918 43.75V58.75L80.1418 56.25V41.25L84.4918 43.75ZM87.5418 38.5C86.6418 38 85.6251 38.0833 84.4918 38.75L80.1418 36.25C81.3085 35.5833 82.3251 35.5 83.1918 36L87.5418 38.5ZM88.8418 21.25L84.4918 23.75L80.1418 21.25L84.4918 18.75L88.8418 21.25ZM73.6918 50C72.9251 50.4333 72.2085 51.0833 71.5418 51.95C70.8751 52.7833 70.3418 53.7 69.9418 54.7C69.5418 55.6667 69.3418 56.6 69.3418 57.5V67.5L64.9918 65V55C64.9918 54.1 65.1918 53.1667 65.5918 52.2C65.9918 51.2 66.5251 50.2833 67.1918 49.45C67.8585 48.5833 68.5751 47.9333 69.3418 47.5L73.6918 50ZM84.4918 23.75V38.75L80.1418 36.25V21.25L84.4918 23.75ZM84.4918 38.75L73.6918 45L69.3418 42.5L80.1418 36.25L84.4918 38.75ZM73.6918 30L69.3418 32.5L64.9918 30L69.3418 27.5L73.6918 30ZM69.3418 32.5V47.5C69.3418 48.8333 69.7751 49.75 70.6418 50.25L66.2918 47.75C65.4251 47.25 64.9918 46.3333 64.9918 45V30L69.3418 32.5Z"/>
</mask>
<path d="M10.85 28L28.15 18C29.2833 17.3333 30.2833 17.25 31.15 17.75C32.05 18.25 32.5 19.1667 32.5 20.5V52.5L28.15 55V23L21.65 26.75V58.75L17.3 61.25V29.25L10.85 33V65L6.5 67.5V35.5C6.5 34.6 6.7 33.6667 7.1 32.7C7.5 31.7 8.03333 30.7833 8.7 29.95C9.36667 29.0833 10.0833 28.4333 10.85 28ZM28.15 23V55L23.8 52.5V20.5L28.15 23ZM17.3 29.25V61.25L13 58.75V26.75L17.3 29.25ZM31.15 17.75C30.2833 17.25 29.2833 17.3333 28.15 18L10.85 28C10.0833 28.4333 9.36667 29.0833 8.7 29.95C8.03333 30.7833 7.5 31.7 7.1 32.7C6.7 33.6667 6.5 34.6 6.5 35.5V67.5L2.15 65V33C2.15 32.1 2.35 31.1667 2.75 30.2C3.15 29.2 3.68333 28.2833 4.35 27.45C5.01667 26.5833 5.73333 25.9333 6.5 25.5L23.8 15.5C24.9667 14.8333 25.9833 14.75 26.85 15.25L31.15 17.75ZM45.518 28L56.318 21.75C57.4513 21.0833 58.4513 21 59.318 21.5C60.218 22 60.668 22.9167 60.668 24.25V56.25L56.318 58.75V48.75L45.518 55V65L41.168 67.5V35.5C41.168 34.6 41.368 33.6667 41.768 32.7C42.168 31.7 42.7013 30.7833 43.368 29.95C44.0346 29.0833 44.7513 28.4333 45.518 28ZM56.318 43.75V26.75L45.518 33V50L56.318 43.75ZM56.318 48.75V58.75L51.968 56.25V46.25L56.318 48.75ZM56.318 26.75V43.75L51.968 41.25V24.25L56.318 26.75ZM56.318 43.75L45.518 50L41.168 47.5L51.968 41.25L56.318 43.75ZM59.368 21.5C58.468 21 57.4513 21.0833 56.318 21.75L45.518 28C44.7513 28.4333 44.0346 29.0833 43.368 29.95C42.7013 30.7833 42.168 31.7 41.768 32.7C41.368 33.6667 41.168 34.6 41.168 35.5V67.5L36.818 65V33C36.818 32.1 37.018 31.1667 37.418 30.2C37.818 29.2 38.3513 28.2833 39.018 27.45C39.6846 26.5833 40.4013 25.9333 41.168 25.5L51.968 19.25C53.1346 18.5833 54.1513 18.5 55.018 19L59.368 21.5ZM69.3418 32.5L73.6918 30V45L84.4918 38.75V23.75L88.8418 21.25V31.25C88.8418 32.1167 88.6251 33.05 88.1918 34.05C87.7918 35.05 87.2585 35.9833 86.5918 36.85C85.9585 37.6833 85.2585 38.3167 84.4918 38.75C85.6251 38.0833 86.6251 38 87.4918 38.5C88.3918 39 88.8418 39.9167 88.8418 41.25V56.25L84.4918 58.75V43.75L73.6918 50V65L69.3418 67.5V57.5C69.3418 56.6 69.5418 55.6667 69.9418 54.7C70.3418 53.7 70.8751 52.7833 71.5418 51.95C72.2085 51.0833 72.9251 50.4333 73.6918 50C72.5251 50.6667 71.5085 50.75 70.6418 50.25C69.7751 49.75 69.3418 48.8333 69.3418 47.5V32.5ZM84.4918 43.75V58.75L80.1418 56.25V41.25L84.4918 43.75ZM87.5418 38.5C86.6418 38 85.6251 38.0833 84.4918 38.75L80.1418 36.25C81.3085 35.5833 82.3251 35.5 83.1918 36L87.5418 38.5ZM88.8418 21.25L84.4918 23.75L80.1418 21.25L84.4918 18.75L88.8418 21.25ZM73.6918 50C72.9251 50.4333 72.2085 51.0833 71.5418 51.95C70.8751 52.7833 70.3418 53.7 69.9418 54.7C69.5418 55.6667 69.3418 56.6 69.3418 57.5V67.5L64.9918 65V55C64.9918 54.1 65.1918 53.1667 65.5918 52.2C65.9918 51.2 66.5251 50.2833 67.1918 49.45C67.8585 48.5833 68.5751 47.9333 69.3418 47.5L73.6918 50ZM84.4918 23.75V38.75L80.1418 36.25V21.25L84.4918 23.75ZM84.4918 38.75L73.6918 45L69.3418 42.5L80.1418 36.25L84.4918 38.75ZM73.6918 30L69.3418 32.5L64.9918 30L69.3418 27.5L73.6918 30ZM69.3418 32.5V47.5C69.3418 48.8333 69.7751 49.75 70.6418 50.25L66.2918 47.75C65.4251 47.25 64.9918 46.3333 64.9918 45V30L69.3418 32.5Z" fill="#0004FF"/>
<path d="M10.85 28L11.1452 28.5224L11.1503 28.5195L10.85 28ZM28.15 18L28.4503 18.5195L28.4542 18.5172L28.15 18ZM31.15 17.75L30.8501 18.2698L30.8586 18.2745L31.15 17.75ZM32.5 52.5L32.799 53.0202L33.1 52.8472V52.5H32.5ZM28.15 55H27.55V56.0369L28.449 55.5202L28.15 55ZM28.15 23H28.75V21.9612L27.8502 22.4803L28.15 23ZM21.65 26.75L21.3502 26.2303L21.05 26.4035V26.75H21.65ZM21.65 58.75L21.949 59.2702L22.25 59.0972V58.75H21.65ZM17.3 61.25H16.7V62.2869L17.599 61.7702L17.3 61.25ZM17.3 29.25H17.9V28.2071L16.9984 28.7313L17.3 29.25ZM10.85 33L10.5484 32.4813L10.25 32.6548V33H10.85ZM10.85 65L11.149 65.5202L11.45 65.3472V65H10.85ZM6.5 67.5H5.9V68.5369L6.79897 68.0202L6.5 67.5ZM7.1 32.7L7.65445 32.9294L7.65709 32.9228L7.1 32.7ZM8.7 29.95L9.16861 30.3249L9.17558 30.3158L8.7 29.95ZM28.15 23H28.75V22.6528L28.449 22.4798L28.15 23ZM28.15 55L27.851 55.5202L28.75 56.0369V55H28.15ZM23.8 52.5H23.2V52.8472L23.501 53.0202L23.8 52.5ZM23.8 20.5L24.099 19.9798L23.2 19.4631V20.5H23.8ZM17.3 29.25H17.9V28.9048L17.6016 28.7313L17.3 29.25ZM17.3 61.25L16.9984 61.7687L17.9 62.2929V61.25H17.3ZM13 58.75H12.4V59.0952L12.6984 59.2687L13 58.75ZM13 26.75L13.3016 26.2313L12.4 25.7071V26.75H13ZM31.15 17.75L30.8502 18.2697L31.4516 17.2313L31.15 17.75ZM28.15 18L28.4503 18.5195L28.4542 18.5172L28.15 18ZM10.85 28L11.1452 28.5224L11.1503 28.5195L10.85 28ZM8.7 29.95L9.16861 30.3249L9.17558 30.3158L8.7 29.95ZM7.1 32.7L7.65445 32.9294L7.65709 32.9228L7.1 32.7ZM6.5 67.5L6.20103 68.0202L7.1 68.5369V67.5H6.5ZM2.15 65H1.55V65.3472L1.85103 65.5202L2.15 65ZM2.75 30.2L3.30445 30.4294L3.30709 30.4228L2.75 30.2ZM4.35 27.45L4.81861 27.8249L4.82557 27.8158L4.35 27.45ZM6.5 25.5L6.79525 26.0224L6.80027 26.0195L6.5 25.5ZM23.8 15.5L23.5023 14.979L23.4997 14.9805L23.8 15.5ZM26.85 15.25L27.1516 14.7313L27.1498 14.7303L26.85 15.25ZM11.1503 28.5195L28.4503 18.5195L27.8497 17.4805L10.5497 27.4805L11.1503 28.5195ZM28.4542 18.5172C29.4685 17.9205 30.2296 17.9117 30.8502 18.2697L31.4498 17.2303C30.3371 16.5883 29.0982 16.7462 27.8458 17.4828L28.4542 18.5172ZM30.8586 18.2745C31.5109 18.6369 31.9 19.3101 31.9 20.5H33.1C33.1 19.0233 32.5891 17.8631 31.4414 17.2255L30.8586 18.2745ZM31.9 20.5V52.5H33.1V20.5H31.9ZM32.201 51.9798L27.851 54.4798L28.449 55.5202L32.799 53.0202L32.201 51.9798ZM28.75 55V23H27.55V55H28.75ZM27.8502 22.4803L21.3502 26.2303L21.9498 27.2697L28.4498 23.5197L27.8502 22.4803ZM21.05 26.75V58.75H22.25V26.75H21.05ZM21.351 58.2298L17.001 60.7298L17.599 61.7702L21.949 59.2702L21.351 58.2298ZM17.9 61.25V29.25H16.7V61.25H17.9ZM16.9984 28.7313L10.5484 32.4813L11.1516 33.5187L17.6016 29.7687L16.9984 28.7313ZM10.25 33V65H11.45V33H10.25ZM10.551 64.4798L6.20103 66.9798L6.79897 68.0202L11.149 65.5202L10.551 64.4798ZM7.1 67.5V35.5H5.9V67.5H7.1ZM7.1 35.5C7.1 34.6904 7.27968 33.835 7.65441 32.9294L6.54559 32.4706C6.12032 33.4983 5.9 34.5096 5.9 35.5H7.1ZM7.65709 32.9228C8.0354 31.9771 8.53903 31.1117 9.16852 30.3248L8.23148 29.5752C7.52764 30.455 6.9646 31.4229 6.54291 32.4772L7.65709 32.9228ZM9.17558 30.3158C9.8047 29.498 10.4633 28.9078 11.1452 28.5223L10.5548 27.4777C9.7034 27.9589 8.92864 28.6687 8.22443 29.5842L9.17558 30.3158ZM27.55 23V55H28.75V23H27.55ZM28.449 54.4798L24.099 51.9798L23.501 53.0202L27.851 55.5202L28.449 54.4798ZM24.4 52.5V20.5H23.2V52.5H24.4ZM23.501 21.0202L27.851 23.5202L28.449 22.4798L24.099 19.9798L23.501 21.0202ZM16.7 29.25V61.25H17.9V29.25H16.7ZM17.6016 60.7313L13.3016 58.2313L12.6984 59.2687L16.9984 61.7687L17.6016 60.7313ZM13.6 58.75V26.75H12.4V58.75H13.6ZM12.6984 27.2687L16.9984 29.7687L17.6016 28.7313L13.3016 26.2313L12.6984 27.2687ZM31.4498 17.2303C30.3371 16.5883 29.0982 16.7462 27.8458 17.4828L28.4542 18.5172C29.4685 17.9205 30.2296 17.9117 30.8502 18.2697L31.4498 17.2303ZM27.8497 17.4805L10.5497 27.4805L11.1503 28.5195L28.4503 18.5195L27.8497 17.4805ZM10.5548 27.4777C9.7034 27.9589 8.92864 28.6687 8.22443 29.5842L9.17558 30.3158C9.8047 29.498 10.4633 28.9078 11.1452 28.5223L10.5548 27.4777ZM8.23148 29.5752C7.52764 30.455 6.9646 31.4229 6.54291 32.4772L7.65709 32.9228C8.0354 31.9771 8.53903 31.1117 9.16852 30.3248L8.23148 29.5752ZM6.54559 32.4706C6.12032 33.4983 5.9 34.5096 5.9 35.5H7.1C7.1 34.6904 7.27968 33.835 7.65441 32.9294L6.54559 32.4706ZM5.9 35.5V67.5H7.1V35.5H5.9ZM6.79897 66.9798L2.44897 64.4798L1.85103 65.5202L6.20103 68.0202L6.79897 66.9798ZM2.75 65V33H1.55V65H2.75ZM2.75 33C2.75 32.1904 2.92968 31.335 3.30441 30.4294L2.19559 29.9706C1.77032 30.9983 1.55 32.0096 1.55 33H2.75ZM3.30709 30.4228C3.6854 29.4771 4.18903 28.6117 4.81852 27.8248L3.88148 27.0752C3.17764 27.955 2.6146 28.9229 2.19291 29.9772L3.30709 30.4228ZM4.82557 27.8158C5.4547 26.998 6.11327 26.4078 6.79524 26.0223L6.20477 24.9777C5.3534 25.4589 4.57864 26.1687 3.87443 27.0842L4.82557 27.8158ZM6.80027 26.0195L24.1003 16.0195L23.4997 14.9805L6.19973 24.9805L6.80027 26.0195ZM24.0977 16.0209C25.1511 15.419 25.9303 15.4121 26.5502 15.7697L27.1498 14.7303C26.0363 14.0879 24.7822 14.2477 23.5023 14.979L24.0977 16.0209ZM26.5484 15.7687L30.8484 18.2687L31.4516 17.2313L27.1516 14.7313L26.5484 15.7687ZM45.518 28L45.8132 28.5224L45.8185 28.5193L45.518 28ZM56.318 21.75L56.6185 22.2693L56.6222 22.2672L56.318 21.75ZM59.318 21.5L59.0181 22.0198L59.0266 22.0245L59.318 21.5ZM60.668 56.25L60.9669 56.7702L61.268 56.5972V56.25H60.668ZM56.318 58.75H55.718V59.7869L56.6169 59.2702L56.318 58.75ZM56.318 48.75H56.918V47.7095L56.0174 48.2307L56.318 48.75ZM45.518 55L45.2174 54.4807L44.918 54.654V55H45.518ZM45.518 65L45.8169 65.5202L46.118 65.3472V65H45.518ZM41.168 67.5H40.568V68.5369L41.4669 68.0202L41.168 67.5ZM41.768 32.7L42.3224 32.9294L42.3251 32.9228L41.768 32.7ZM43.368 29.95L43.8366 30.3249L43.8435 30.3158L43.368 29.95ZM56.318 43.75L56.6185 44.2693L56.918 44.096V43.75H56.318ZM56.318 26.75H56.918V25.7095L56.0174 26.2307L56.318 26.75ZM45.518 33L45.2174 32.4807L44.918 32.654V33H45.518ZM45.518 50H44.918V51.0404L45.8185 50.5193L45.518 50ZM56.318 48.75H56.918V48.4028L56.6169 48.2298L56.318 48.75ZM56.318 58.75L56.019 59.2702L56.918 59.7869V58.75H56.318ZM51.968 56.25H51.368V56.5972L51.669 56.7702L51.968 56.25ZM51.968 46.25L52.2669 45.7298L51.368 45.2131V46.25H51.968ZM56.318 26.75H56.918V26.4028L56.6169 26.2298L56.318 26.75ZM56.318 43.75L56.019 44.2702L56.918 44.7869V43.75H56.318ZM51.968 41.25H51.368V41.5972L51.669 41.7702L51.968 41.25ZM51.968 24.25L52.2669 23.7298L51.368 23.2131V24.25H51.968ZM56.318 43.75L56.6185 44.2693L57.519 43.7482L56.6169 43.2298L56.318 43.75ZM45.518 50L45.219 50.5202L45.519 50.6926L45.8185 50.5193L45.518 50ZM41.168 47.5L40.8674 46.9807L39.967 47.5018L40.869 48.0202L41.168 47.5ZM51.968 41.25L52.2669 40.7298L51.9669 40.5574L51.6674 40.7307L51.968 41.25ZM59.368 21.5L59.0766 22.0245L59.6669 20.9798L59.368 21.5ZM56.318 21.75L56.6185 22.2693L56.6222 22.2672L56.318 21.75ZM45.518 28L45.8132 28.5224L45.8185 28.5193L45.518 28ZM43.368 29.95L43.8366 30.3249L43.8435 30.3158L43.368 29.95ZM41.768 32.7L42.3224 32.9294L42.3251 32.9228L41.768 32.7ZM41.168 67.5L40.869 68.0202L41.768 68.5369V67.5H41.168ZM36.818 65H36.218V65.3472L36.519 65.5202L36.818 65ZM37.418 30.2L37.9724 30.4294L37.9751 30.4228L37.418 30.2ZM39.018 27.45L39.4866 27.8249L39.4935 27.8158L39.018 27.45ZM41.168 25.5L41.4632 26.0224L41.4685 26.0193L41.168 25.5ZM51.968 19.25L51.6703 18.729L51.6674 18.7307L51.968 19.25ZM55.018 19L54.7181 19.5197L54.719 19.5202L55.018 19ZM45.8185 28.5193L56.6185 22.2693L56.0174 21.2307L45.2174 27.4807L45.8185 28.5193ZM56.6222 22.2672C57.6365 21.6705 58.3975 21.6617 59.0181 22.0197L59.6178 20.9803C58.5051 20.3383 57.2661 20.4962 56.0138 21.2328L56.6222 22.2672ZM59.0266 22.0245C59.6788 22.3869 60.068 23.0601 60.068 24.25H61.268C61.268 22.7733 60.7571 21.6131 59.6094 20.9755L59.0266 22.0245ZM60.068 24.25V56.25H61.268V24.25H60.068ZM60.369 55.7298L56.019 58.2298L56.6169 59.2702L60.9669 56.7702L60.369 55.7298ZM56.918 58.75V48.75H55.718V58.75H56.918ZM56.0174 48.2307L45.2174 54.4807L45.8185 55.5193L56.6185 49.2693L56.0174 48.2307ZM44.918 55V65H46.118V55H44.918ZM45.219 64.4798L40.869 66.9798L41.4669 68.0202L45.8169 65.5202L45.219 64.4798ZM41.768 67.5V35.5H40.568V67.5H41.768ZM41.768 35.5C41.768 34.6904 41.9477 33.835 42.3224 32.9294L41.2136 32.4706C40.7883 33.4983 40.568 34.5096 40.568 35.5H41.768ZM42.3251 32.9228C42.7034 31.9771 43.207 31.1117 43.8365 30.3248L42.8994 29.5752C42.1956 30.455 41.6326 31.4229 41.2109 32.4772L42.3251 32.9228ZM43.8435 30.3158C44.4727 29.498 45.1312 28.9078 45.8132 28.5223L45.2227 27.4777C44.3714 27.9589 43.5966 28.6687 42.8924 29.5842L43.8435 30.3158ZM56.918 43.75V26.75H55.718V43.75H56.918ZM56.0174 26.2307L45.2174 32.4807L45.8185 33.5193L56.6185 27.2693L56.0174 26.2307ZM44.918 33V50H46.118V33H44.918ZM45.8185 50.5193L56.6185 44.2693L56.0174 43.2307L45.2174 49.4807L45.8185 50.5193ZM55.718 48.75V58.75H56.918V48.75H55.718ZM56.6169 58.2298L52.2669 55.7298L51.669 56.7702L56.019 59.2702L56.6169 58.2298ZM52.568 56.25V46.25H51.368V56.25H52.568ZM51.669 46.7702L56.019 49.2702L56.6169 48.2298L52.2669 45.7298L51.669 46.7702ZM55.718 26.75V43.75H56.918V26.75H55.718ZM56.6169 43.2298L52.2669 40.7298L51.669 41.7702L56.019 44.2702L56.6169 43.2298ZM52.568 41.25V24.25H51.368V41.25H52.568ZM51.669 24.7702L56.019 27.2702L56.6169 26.2298L52.2669 23.7298L51.669 24.7702ZM56.0174 43.2307L45.2174 49.4807L45.8185 50.5193L56.6185 44.2693L56.0174 43.2307ZM45.8169 49.4798L41.4669 46.9798L40.869 48.0202L45.219 50.5202L45.8169 49.4798ZM41.4685 48.0193L52.2685 41.7693L51.6674 40.7307L40.8674 46.9807L41.4685 48.0193ZM51.669 41.7702L56.019 44.2702L56.6169 43.2298L52.2669 40.7298L51.669 41.7702ZM59.6594 20.9755C58.521 20.3431 57.2718 20.4928 56.0138 21.2328L56.6222 22.2672C57.6308 21.6739 58.4149 21.6569 59.0766 22.0245L59.6594 20.9755ZM56.0174 21.2307L45.2174 27.4807L45.8185 28.5193L56.6185 22.2693L56.0174 21.2307ZM45.2227 27.4777C44.3714 27.9589 43.5966 28.6687 42.8924 29.5842L43.8435 30.3158C44.4727 29.498 45.1312 28.9078 45.8132 28.5223L45.2227 27.4777ZM42.8994 29.5752C42.1956 30.455 41.6326 31.4229 41.2109 32.4772L42.3251 32.9228C42.7034 31.9771 43.207 31.1117 43.8365 30.3248L42.8994 29.5752ZM41.2136 32.4706C40.7883 33.4983 40.568 34.5096 40.568 35.5H41.768C41.768 34.6904 41.9477 33.835 42.3224 32.9294L41.2136 32.4706ZM40.568 35.5V67.5H41.768V35.5H40.568ZM41.4669 66.9798L37.1169 64.4798L36.519 65.5202L40.869 68.0202L41.4669 66.9798ZM37.418 65V33H36.218V65H37.418ZM37.418 33C37.418 32.1904 37.5976 31.335 37.9724 30.4294L36.8636 29.9706C36.4383 30.9983 36.218 32.0096 36.218 33H37.418ZM37.9751 30.4228C38.3534 29.4771 38.857 28.6117 39.4865 27.8248L38.5494 27.0752C37.8456 27.955 37.2826 28.9229 36.8609 29.9772L37.9751 30.4228ZM39.4935 27.8158C40.1227 26.998 40.7812 26.4078 41.4632 26.0223L40.8727 24.9777C40.0214 25.4589 39.2466 26.1687 38.5424 27.0842L39.4935 27.8158ZM41.4685 26.0193L52.2685 19.7693L51.6674 18.7307L40.8674 24.9807L41.4685 26.0193ZM52.2657 19.7709C53.3191 19.169 54.0983 19.1621 54.7181 19.5197L55.3178 18.4803C54.2043 17.8379 52.9502 17.9977 51.6703 18.7291L52.2657 19.7709ZM54.719 19.5202L59.069 22.0202L59.6669 20.9798L55.3169 18.4798L54.719 19.5202ZM69.3418 32.5L69.0428 31.9798L68.7418 32.1528V32.5H69.3418ZM73.6918 30H74.2918V28.9631L73.3928 29.4798L73.6918 30ZM73.6918 45H73.0918V46.0404L73.9923 45.5193L73.6918 45ZM84.4918 38.75L84.7923 39.2693L85.0918 39.096V38.75H84.4918ZM84.4918 23.75L84.1928 23.2298L83.8918 23.4028V23.75H84.4918ZM88.8418 21.25H89.4418V20.2131L88.5428 20.7298L88.8418 21.25ZM88.1918 34.05L87.6413 33.8114L87.6379 33.8193L87.6347 33.8272L88.1918 34.05ZM86.5918 36.85L86.1162 36.4842L86.1141 36.4869L86.5918 36.85ZM84.4918 38.75L84.1876 38.2328L84.787 39.2723L84.4918 38.75ZM87.4918 38.5L87.1919 39.0198L87.2004 39.0245L87.4918 38.5ZM88.8418 56.25L89.1408 56.7702L89.4418 56.5972V56.25H88.8418ZM84.4918 58.75H83.8918V59.7869L84.7908 59.2702L84.4918 58.75ZM84.4918 43.75H85.0918V42.7095L84.1913 43.2307L84.4918 43.75ZM73.6918 50L73.3913 49.4807L73.0918 49.654V50H73.6918ZM73.6918 65L73.9908 65.5202L74.2918 65.3472V65H73.6918ZM69.3418 67.5H68.7418V68.5369L69.6408 68.0202L69.3418 67.5ZM69.9418 54.7L70.4962 54.9294L70.4989 54.9228L69.9418 54.7ZM71.5418 51.95L72.0104 52.3249L72.0174 52.3158L71.5418 51.95ZM73.6918 50L73.9895 50.5209L73.3966 49.4777L73.6918 50ZM70.6418 50.25L70.9416 49.7303L70.6418 50.25ZM84.4918 43.75H85.0918V43.4028L84.7908 43.2298L84.4918 43.75ZM84.4918 58.75L84.1928 59.2702L85.0918 59.7869V58.75H84.4918ZM80.1418 56.25H79.5418V56.5972L79.8428 56.7702L80.1418 56.25ZM80.1418 41.25L80.4408 40.7298L79.5418 40.2131V41.25H80.1418ZM87.5418 38.5L87.2504 39.0245L87.8408 37.9798L87.5418 38.5ZM84.4918 38.75L84.1928 39.2702L84.4953 39.444L84.796 39.2672L84.4918 38.75ZM80.1418 36.25L79.8441 35.7291L78.9351 36.2485L79.8428 36.7702L80.1418 36.25ZM83.1918 36L82.892 36.5197L82.8928 36.5202L83.1918 36ZM88.8418 21.25L89.1408 21.7702L90.0459 21.25L89.1408 20.7298L88.8418 21.25ZM84.4918 23.75L84.1928 24.2702L84.4918 24.442L84.7908 24.2702L84.4918 23.75ZM80.1418 21.25L79.8428 20.7298L78.9377 21.25L79.8428 21.7702L80.1418 21.25ZM84.4918 18.75L84.7908 18.2298L84.4918 18.058L84.1928 18.2298L84.4918 18.75ZM73.6918 50L73.987 50.5223L74.9035 50.0043L73.9908 49.4798L73.6918 50ZM71.5418 51.95L72.0104 52.3249L72.0174 52.3158L71.5418 51.95ZM69.9418 54.7L70.4962 54.9294L70.4989 54.9228L69.9418 54.7ZM69.3418 67.5L69.0428 68.0202L69.9418 68.5369V67.5H69.3418ZM64.9918 65H64.3918V65.3472L64.6928 65.5202L64.9918 65ZM65.5918 52.2L66.1462 52.4294L66.1489 52.4228L65.5918 52.2ZM67.1918 49.45L67.6604 49.8249L67.6674 49.8158L67.1918 49.45ZM69.3418 47.5L69.6408 46.9798L69.3443 46.8094L69.0466 46.9777L69.3418 47.5ZM84.4918 23.75H85.0918V23.4028L84.7908 23.2298L84.4918 23.75ZM84.4918 38.75L84.1928 39.2702L85.0918 39.7869V38.75H84.4918ZM80.1418 36.25H79.5418V36.5972L79.8428 36.7702L80.1418 36.25ZM80.1418 21.25L80.4408 20.7298L79.5418 20.2131V21.25H80.1418ZM84.4918 38.75L84.7923 39.2693L85.6928 38.7482L84.7908 38.2298L84.4918 38.75ZM73.6918 45L73.3928 45.5202L73.6928 45.6926L73.9923 45.5193L73.6918 45ZM69.3418 42.5L69.0413 41.9807L68.1408 42.5018L69.0428 43.0202L69.3418 42.5ZM80.1418 36.25L80.4408 35.7298L80.1408 35.5574L79.8413 35.7307L80.1418 36.25ZM73.6918 30L73.9908 30.5202L74.8959 30L73.9908 29.4798L73.6918 30ZM69.3418 32.5L69.0428 33.0202L69.3418 33.192L69.6408 33.0202L69.3418 32.5ZM64.9918 30L64.6928 29.4798L63.7877 30L64.6928 30.5202L64.9918 30ZM69.3418 27.5L69.6408 26.9798L69.3418 26.808L69.0428 26.9798L69.3418 27.5ZM69.3418 32.5H69.9418V32.1528L69.6408 31.9798L69.3418 32.5ZM70.6418 50.25L70.3428 50.7702L70.9416 49.7303L70.6418 50.25ZM66.2918 47.75L65.992 48.2697L65.9928 48.2702L66.2918 47.75ZM64.9918 30L65.2908 29.4798L64.3918 28.9631V30H64.9918ZM69.6408 33.0202L73.9908 30.5202L73.3928 29.4798L69.0428 31.9798L69.6408 33.0202ZM73.0918 30V45H74.2918V30H73.0918ZM73.9923 45.5193L84.7923 39.2693L84.1913 38.2307L73.3913 44.4807L73.9923 45.5193ZM85.0918 38.75V23.75H83.8918V38.75H85.0918ZM84.7908 24.2702L89.1408 21.7702L88.5428 20.7298L84.1928 23.2298L84.7908 24.2702ZM88.2418 21.25V31.25H89.4418V21.25H88.2418ZM88.2418 31.25C88.2418 32.0164 88.0501 32.868 87.6413 33.8114L88.7423 34.2886C89.2002 33.232 89.4418 32.217 89.4418 31.25H88.2418ZM87.6347 33.8272C87.2555 34.7752 86.7498 35.6605 86.1162 36.4842L87.0674 37.2158C87.7671 36.3061 88.3281 35.3248 88.7489 34.2728L87.6347 33.8272ZM86.1141 36.4869C85.521 37.2674 84.8801 37.8413 84.1966 38.2277L84.787 39.2723C85.6368 38.792 86.396 38.0993 87.0695 37.2131L86.1141 36.4869ZM84.796 39.2672C85.8103 38.6705 86.5714 38.6617 87.192 39.0197L87.7916 37.9803C86.6789 37.3383 85.4399 37.4962 84.1876 38.2328L84.796 39.2672ZM87.2004 39.0245C87.8527 39.3869 88.2418 40.0601 88.2418 41.25H89.4418C89.4418 39.7733 88.9309 38.6131 87.7832 37.9755L87.2004 39.0245ZM88.2418 41.25V56.25H89.4418V41.25H88.2418ZM88.5428 55.7298L84.1928 58.2298L84.7908 59.2702L89.1408 56.7702L88.5428 55.7298ZM85.0918 58.75V43.75H83.8918V58.75H85.0918ZM84.1913 43.2307L73.3913 49.4807L73.9923 50.5193L84.7923 44.2693L84.1913 43.2307ZM73.0918 50V65H74.2918V50H73.0918ZM73.3928 64.4798L69.0428 66.9798L69.6408 68.0202L73.9908 65.5202L73.3928 64.4798ZM69.9418 67.5V57.5H68.7418V67.5H69.9418ZM69.9418 57.5C69.9418 56.6904 70.1215 55.835 70.4962 54.9294L69.3874 54.4706C68.9621 55.4983 68.7418 56.5096 68.7418 57.5H69.9418ZM70.4989 54.9228C70.8772 53.9771 71.3808 53.1117 72.0103 52.3248L71.0733 51.5752C70.3694 52.455 69.8064 53.4229 69.3847 54.4772L70.4989 54.9228ZM72.0174 52.3158C72.6465 51.498 73.3051 50.9078 73.987 50.5223L73.3966 49.4777C72.5452 49.9589 71.7704 50.6687 71.0662 51.5842L72.0174 52.3158ZM73.3941 49.4791C72.3407 50.081 71.5615 50.0879 70.9416 49.7303L70.342 50.7697C71.4555 51.4121 72.7096 51.2523 73.9895 50.5209L73.3941 49.4791ZM70.9416 49.7303C70.3217 49.3726 69.9418 48.7001 69.9418 47.5H68.7418C68.7418 48.9665 69.2286 50.1274 70.342 50.7697L70.9416 49.7303ZM69.9418 47.5V32.5H68.7418V47.5H69.9418ZM83.8918 43.75V58.75H85.0918V43.75H83.8918ZM84.7908 58.2298L80.4408 55.7298L79.8428 56.7702L84.1928 59.2702L84.7908 58.2298ZM80.7418 56.25V41.25H79.5418V56.25H80.7418ZM79.8428 41.7702L84.1928 44.2702L84.7908 43.2298L80.4408 40.7298L79.8428 41.7702ZM87.8332 37.9755C86.6948 37.3431 85.4456 37.4928 84.1876 38.2328L84.796 39.2672C85.8046 38.6739 86.5887 38.6569 87.2504 39.0245L87.8332 37.9755ZM84.7908 38.2298L80.4408 35.7298L79.8428 36.7702L84.1928 39.2702L84.7908 38.2298ZM80.4395 36.7709C81.4929 36.169 82.2721 36.1621 82.892 36.5197L83.4916 35.4803C82.3781 34.8379 81.124 34.9977 79.8441 35.7291L80.4395 36.7709ZM82.8928 36.5202L87.2428 39.0202L87.8408 37.9798L83.4908 35.4798L82.8928 36.5202ZM88.5428 20.7298L84.1928 23.2298L84.7908 24.2702L89.1408 21.7702L88.5428 20.7298ZM84.7908 23.2298L80.4408 20.7298L79.8428 21.7702L84.1928 24.2702L84.7908 23.2298ZM80.4408 21.7702L84.7908 19.2702L84.1928 18.2298L79.8428 20.7298L80.4408 21.7702ZM84.1928 19.2702L88.5428 21.7702L89.1408 20.7298L84.7908 18.2298L84.1928 19.2702ZM73.3966 49.4777C72.5452 49.9589 71.7704 50.6687 71.0662 51.5842L72.0174 52.3158C72.6465 51.498 73.3051 50.9078 73.987 50.5223L73.3966 49.4777ZM71.0733 51.5752C70.3694 52.455 69.8064 53.4229 69.3847 54.4772L70.4989 54.9228C70.8772 53.9771 71.3808 53.1117 72.0103 52.3248L71.0733 51.5752ZM69.3874 54.4706C68.9621 55.4983 68.7418 56.5096 68.7418 57.5H69.9418C69.9418 56.6904 70.1215 55.835 70.4962 54.9294L69.3874 54.4706ZM68.7418 57.5V67.5H69.9418V57.5H68.7418ZM69.6408 66.9798L65.2908 64.4798L64.6928 65.5202L69.0428 68.0202L69.6408 66.9798ZM65.5918 65V55H64.3918V65H65.5918ZM65.5918 55C65.5918 54.1904 65.7715 53.335 66.1462 52.4294L65.0374 51.9706C64.6121 52.9983 64.3918 54.0096 64.3918 55H65.5918ZM66.1489 52.4228C66.5272 51.4771 67.0308 50.6117 67.6603 49.8248L66.7233 49.0752C66.0194 49.955 65.4564 50.9229 65.0347 51.9772L66.1489 52.4228ZM67.6674 49.8158C68.2965 48.998 68.9551 48.4078 69.637 48.0223L69.0466 46.9777C68.1952 47.4589 67.4204 48.1687 66.7162 49.0842L67.6674 49.8158ZM69.0428 48.0202L73.3928 50.5202L73.9908 49.4798L69.6408 46.9798L69.0428 48.0202ZM83.8918 23.75V38.75H85.0918V23.75H83.8918ZM84.7908 38.2298L80.4408 35.7298L79.8428 36.7702L84.1928 39.2702L84.7908 38.2298ZM80.7418 36.25V21.25H79.5418V36.25H80.7418ZM79.8428 21.7702L84.1928 24.2702L84.7908 23.2298L80.4408 20.7298L79.8428 21.7702ZM84.1913 38.2307L73.3913 44.4807L73.9923 45.5193L84.7923 39.2693L84.1913 38.2307ZM73.9908 44.4798L69.6408 41.9798L69.0428 43.0202L73.3928 45.5202L73.9908 44.4798ZM69.6423 43.0193L80.4423 36.7693L79.8413 35.7307L69.0413 41.9807L69.6423 43.0193ZM79.8428 36.7702L84.1928 39.2702L84.7908 38.2298L80.4408 35.7298L79.8428 36.7702ZM73.3928 29.4798L69.0428 31.9798L69.6408 33.0202L73.9908 30.5202L73.3928 29.4798ZM69.6408 31.9798L65.2908 29.4798L64.6928 30.5202L69.0428 33.0202L69.6408 31.9798ZM65.2908 30.5202L69.6408 28.0202L69.0428 26.9798L64.6928 29.4798L65.2908 30.5202ZM69.0428 28.0202L73.3928 30.5202L73.9908 29.4798L69.6408 26.9798L69.0428 28.0202ZM68.7418 32.5V47.5H69.9418V32.5H68.7418ZM68.7418 47.5C68.7418 48.9665 69.2286 50.1274 70.342 50.7697L70.9416 49.7303C70.3217 49.3726 69.9418 48.7001 69.9418 47.5H68.7418ZM70.9408 49.7298L66.5908 47.2298L65.9928 48.2702L70.3428 50.7702L70.9408 49.7298ZM66.5916 47.2303C65.9717 46.8726 65.5918 46.2001 65.5918 45H64.3918C64.3918 46.4665 64.8786 47.6274 65.992 48.2697L66.5916 47.2303ZM65.5918 45V30H64.3918V45H65.5918ZM64.6928 30.5202L69.0428 33.0202L69.6408 31.9798L65.2908 29.4798L64.6928 30.5202Z" fill="white" mask="url(#path-3-outside-2_30_137)"/>
<defs>
<filter id="filter0_f_30_137" x="1.96403" y="10.42" width="87.4241" height="55.0799" filterUnits="userSpaceOnUse" color-interpolation-filters="sRGB">
<feFlood flood-opacity="0" result="BackgroundImageFix"/>
<feBlend mode="normal" in="SourceGraphic" in2="BackgroundImageFix" result="shape"/>
<feGaussianBlur stdDeviation="1.05" result="effect1_foregroundBlur_30_137"/>
</filter>
</defs>
</svg>
