<svg width="31" height="54" viewBox="0 0 31 54" fill="none" xmlns="http://www.w3.org/2000/svg">
<mask id="path-1-outside-1_22_268" maskUnits="userSpaceOnUse" x="-1" y="0" width="33" height="55" fill="black">
<rect fill="white" x="-1" width="33" height="55"/>
<path d="M8.85 14L26.15 4C27.2833 3.33333 28.2833 3.25 29.15 3.75C30.05 4.25 30.5 5.16666 30.5 6.5V38.5L26.15 41V9L19.65 12.75V44.75L15.3 47.25V15.25L8.85 19V51L4.5 53.5V21.5C4.5 20.6 4.7 19.6667 5.1 18.7C5.5 17.7 6.03333 16.7833 6.7 15.95C7.36667 15.0833 8.08333 14.4333 8.85 14ZM26.15 9V41L21.8 38.5V6.5L26.15 9ZM15.3 15.25V47.25L11 44.75V12.75L15.3 15.25ZM29.15 3.75C28.2833 3.25 27.2833 3.33333 26.15 4L8.85 14C8.08333 14.4333 7.36667 15.0833 6.7 15.95C6.03333 16.7833 5.5 17.7 5.1 18.7C4.7 19.6667 4.5 20.6 4.5 21.5V53.5L0.15 51V19C0.15 18.1 0.35 17.1667 0.75 16.2C1.15 15.2 1.68333 14.2833 2.35 13.45C3.01667 12.5833 3.73333 11.9333 4.5 11.5L21.8 1.5C22.9667 0.833332 23.9833 0.749999 24.85 1.25L29.15 3.75Z"/>
</mask>
<path d="M8.85 14L26.15 4C27.2833 3.33333 28.2833 3.25 29.15 3.75C30.05 4.25 30.5 5.16666 30.5 6.5V38.5L26.15 41V9L19.65 12.75V44.75L15.3 47.25V15.25L8.85 19V51L4.5 53.5V21.5C4.5 20.6 4.7 19.6667 5.1 18.7C5.5 17.7 6.03333 16.7833 6.7 15.95C7.36667 15.0833 8.08333 14.4333 8.85 14ZM26.15 9V41L21.8 38.5V6.5L26.15 9ZM15.3 15.25V47.25L11 44.75V12.75L15.3 15.25ZM29.15 3.75C28.2833 3.25 27.2833 3.33333 26.15 4L8.85 14C8.08333 14.4333 7.36667 15.0833 6.7 15.95C6.03333 16.7833 5.5 17.7 5.1 18.7C4.7 19.6667 4.5 20.6 4.5 21.5V53.5L0.15 51V19C0.15 18.1 0.35 17.1667 0.75 16.2C1.15 15.2 1.68333 14.2833 2.35 13.45C3.01667 12.5833 3.73333 11.9333 4.5 11.5L21.8 1.5C22.9667 0.833332 23.9833 0.749999 24.85 1.25L29.15 3.75Z" fill="#1154D9"/>
<path d="M8.85 14L9.14525 14.5224L9.15027 14.5195L8.85 14ZM26.15 4L26.4503 4.51947L26.4542 4.51716L26.15 4ZM29.15 3.75L28.8501 4.26978L28.8586 4.27449L29.15 3.75ZM30.5 38.5L30.799 39.0202L31.1 38.8472V38.5H30.5ZM26.15 41H25.55V42.0369L26.449 41.5202L26.15 41ZM26.15 9H26.75V7.96115L25.8502 8.48029L26.15 9ZM19.65 12.75L19.3502 12.2303L19.05 12.4035V12.75H19.65ZM19.65 44.75L19.949 45.2702L20.25 45.0972V44.75H19.65ZM15.3 47.25H14.7V48.2869L15.599 47.7702L15.3 47.25ZM15.3 15.25H15.9V14.2071L14.9984 14.7313L15.3 15.25ZM8.85 19L8.54843 18.4813L8.25 18.6548V19H8.85ZM8.85 51L9.14897 51.5202L9.45 51.3472V51H8.85ZM4.5 53.5H3.9V54.5369L4.79897 54.0202L4.5 53.5ZM5.1 18.7L5.65445 18.9294L5.65709 18.9228L5.1 18.7ZM6.7 15.95L7.16861 16.3249L7.17558 16.3158L6.7 15.95ZM26.15 9H26.75V8.6528L26.449 8.47979L26.15 9ZM26.15 41L25.851 41.5202L26.75 42.0369V41H26.15ZM21.8 38.5H21.2V38.8472L21.501 39.0202L21.8 38.5ZM21.8 6.5L22.099 5.97979L21.2 5.46314V6.5H21.8ZM15.3 15.25H15.9V14.9048L15.6016 14.7313L15.3 15.25ZM15.3 47.25L14.9984 47.7687L15.9 48.2929V47.25H15.3ZM11 44.75H10.4V45.0952L10.6984 45.2687L11 44.75ZM11 12.75L11.3016 12.2313L10.4 11.7071V12.75H11ZM29.15 3.75L28.8502 4.26971L29.4516 3.23129L29.15 3.75ZM26.15 4L26.4503 4.51947L26.4542 4.51716L26.15 4ZM8.85 14L9.14525 14.5224L9.15027 14.5195L8.85 14ZM6.7 15.95L7.16861 16.3249L7.17558 16.3158L6.7 15.95ZM5.1 18.7L5.65445 18.9294L5.65709 18.9228L5.1 18.7ZM4.5 53.5L4.20103 54.0202L5.1 54.5369V53.5H4.5ZM0.15 51H-0.45V51.3472L-0.14897 51.5202L0.15 51ZM0.75 16.2L1.30445 16.4294L1.30709 16.4228L0.75 16.2ZM2.35 13.45L2.81861 13.8249L2.82557 13.8158L2.35 13.45ZM4.5 11.5L4.79525 12.0224L4.80027 12.0195L4.5 11.5ZM21.8 1.5L21.5023 0.979044L21.4997 0.980535L21.8 1.5ZM24.85 1.25L25.1516 0.73129L25.1498 0.730285L24.85 1.25ZM9.15027 14.5195L26.4503 4.51946L25.8497 3.48054L8.54973 13.4805L9.15027 14.5195ZM26.4542 4.51716C27.4685 3.92051 28.2296 3.91167 28.8502 4.26971L29.4498 3.23029C28.3371 2.58833 27.0982 2.74615 25.8458 3.48284L26.4542 4.51716ZM28.8586 4.27449C29.5109 4.63685 29.9 5.31006 29.9 6.5H31.1C31.1 5.02327 30.5891 3.86314 29.4414 3.2255L28.8586 4.27449ZM29.9 6.5V38.5H31.1V6.5H29.9ZM30.201 37.9798L25.851 40.4798L26.449 41.5202L30.799 39.0202L30.201 37.9798ZM26.75 41V9H25.55V41H26.75ZM25.8502 8.48029L19.3502 12.2303L19.9498 13.2697L26.4498 9.51971L25.8502 8.48029ZM19.05 12.75V44.75H20.25V12.75H19.05ZM19.351 44.2298L15.001 46.7298L15.599 47.7702L19.949 45.2702L19.351 44.2298ZM15.9 47.25V15.25H14.7V47.25H15.9ZM14.9984 14.7313L8.54843 18.4813L9.15157 19.5187L15.6016 15.7687L14.9984 14.7313ZM8.25 19V51H9.45V19H8.25ZM8.55103 50.4798L4.20103 52.9798L4.79897 54.0202L9.14897 51.5202L8.55103 50.4798ZM5.1 53.5V21.5H3.9V53.5H5.1ZM5.1 21.5C5.1 20.6904 5.27968 19.835 5.65441 18.9294L4.54559 18.4706C4.12032 19.4983 3.9 20.5096 3.9 21.5H5.1ZM5.65709 18.9228C6.0354 17.9771 6.53903 17.1117 7.16852 16.3248L6.23148 15.5752C5.52764 16.455 4.9646 17.4229 4.54291 18.4772L5.65709 18.9228ZM7.17558 16.3158C7.8047 15.498 8.46327 14.9078 9.14523 14.5223L8.55477 13.4777C7.7034 13.9589 6.92864 14.6687 6.22443 15.5842L7.17558 16.3158ZM25.55 9V41H26.75V9H25.55ZM26.449 40.4798L22.099 37.9798L21.501 39.0202L25.851 41.5202L26.449 40.4798ZM22.4 38.5V6.5H21.2V38.5H22.4ZM21.501 7.02021L25.851 9.52021L26.449 8.47979L22.099 5.97979L21.501 7.02021ZM14.7 15.25V47.25H15.9V15.25H14.7ZM15.6016 46.7313L11.3016 44.2313L10.6984 45.2687L14.9984 47.7687L15.6016 46.7313ZM11.6 44.75V12.75H10.4V44.75H11.6ZM10.6984 13.2687L14.9984 15.7687L15.6016 14.7313L11.3016 12.2313L10.6984 13.2687ZM29.4498 3.23029C28.3371 2.58833 27.0982 2.74615 25.8458 3.48284L26.4542 4.51716C27.4685 3.92051 28.2296 3.91167 28.8502 4.26971L29.4498 3.23029ZM25.8497 3.48054L8.54973 13.4805L9.15027 14.5195L26.4503 4.51946L25.8497 3.48054ZM8.55477 13.4777C7.7034 13.9589 6.92864 14.6687 6.22443 15.5842L7.17558 16.3158C7.8047 15.498 8.46327 14.9078 9.14523 14.5223L8.55477 13.4777ZM6.23148 15.5752C5.52764 16.455 4.9646 17.4229 4.54291 18.4772L5.65709 18.9228C6.0354 17.9771 6.53903 17.1117 7.16852 16.3248L6.23148 15.5752ZM4.54559 18.4706C4.12032 19.4983 3.9 20.5096 3.9 21.5H5.1C5.1 20.6904 5.27968 19.835 5.65441 18.9294L4.54559 18.4706ZM3.9 21.5V53.5H5.1V21.5H3.9ZM4.79897 52.9798L0.44897 50.4798L-0.14897 51.5202L4.20103 54.0202L4.79897 52.9798ZM0.75 51V19H-0.45V51H0.75ZM0.75 19C0.75 18.1904 0.929681 17.335 1.30441 16.4294L0.19559 15.9706C-0.22968 16.9983 -0.45 18.0096 -0.45 19H0.75ZM1.30709 16.4228C1.6854 15.4771 2.18903 14.6117 2.81852 13.8248L1.88148 13.0752C1.17764 13.955 0.614604 14.9229 0.192914 15.9772L1.30709 16.4228ZM2.82557 13.8158C3.4547 12.998 4.11327 12.4078 4.79524 12.0223L4.20477 10.9777C3.3534 11.4589 2.57864 12.1687 1.87443 13.0842L2.82557 13.8158ZM4.80027 12.0195L22.1003 2.01946L21.4997 0.980535L4.19973 10.9805L4.80027 12.0195ZM22.0977 2.02094C23.1511 1.41899 23.9303 1.41211 24.5502 1.76971L25.1498 0.730285C24.0363 0.087891 22.7822 0.247675 21.5023 0.97905L22.0977 2.02094ZM24.5484 1.7687L28.8484 4.2687L29.4516 3.23129L25.1516 0.731292L24.5484 1.7687Z" fill="white" mask="url(#path-1-outside-1_22_268)"/>
</svg>
