<svg width="80" height="80" viewBox="0 0 80 80" fill="none" xmlns="http://www.w3.org/2000/svg">
<g clip-path="url(#clip0_140_36)">
<path d="M40.7219 40.5064C41.2069 40.3403 41.6958 40.1866 42.1885 40.0453C41.6803 38.8722 41.1625 37.7455 40.6349 36.665C34.3372 38.4208 27.8306 39.3148 21.2928 39.3229C21.018 39.3229 20.7486 39.3205 20.4819 39.3175C20.4741 39.5441 20.4688 39.7707 20.4688 39.9999C20.4621 44.8045 22.2335 49.4417 25.4417 53.0183C26.4966 51.5115 27.6428 50.0709 28.8741 48.7044C32.4852 44.721 36.4713 41.963 40.7219 40.5064Z" fill="white"/>
<path d="M42.6341 32.5429C46.6226 31.0608 50.1813 28.6127 52.9916 25.4179C50.6319 23.3172 47.7983 21.8196 44.7334 21.0532C41.6685 20.2867 38.4636 20.2743 35.3928 21.017C37.2282 23.5035 38.9358 26.0818 40.5089 28.742C41.251 29.9958 41.9594 31.2628 42.6341 32.5429Z" fill="white"/>
<path d="M41.8023 43.66C35.9164 45.6767 31.3062 50.4067 27.9003 55.3319C30.645 57.4962 33.9196 58.8853 37.3834 59.3546C40.8471 59.8238 44.3733 59.3561 47.595 58C46.7061 52.9267 45.3209 47.9531 43.4595 43.1506C42.9032 43.3033 42.3506 43.472 41.8023 43.66Z" fill="white"/>
<path d="M37.3713 30.5982C35.6688 27.72 33.8011 24.9427 31.7775 22.2803C29.0215 23.5618 26.6019 25.4678 24.7107 27.8472C22.8195 30.2265 21.5086 33.0138 20.8821 35.9879C27.027 36.0182 33.1484 35.2265 39.0833 33.6337C38.5075 32.5625 37.9338 31.549 37.3713 30.5982Z" fill="white"/>
<path d="M47.0938 42.4017C47.6875 43.9697 48.2319 45.5473 48.727 47.1345C49.6505 50.0954 50.4018 53.1073 50.977 56.1551C53.1667 54.6671 55.0311 52.7494 56.4569 50.5186C57.8827 48.2879 58.8401 45.7906 59.2711 43.1784C55.0625 42.1226 50.9906 41.8634 47.0938 42.4017Z" fill="white"/>
<path d="M40 0C17.9086 0 0 17.9086 0 40C0 62.0914 17.9086 80 40 80C62.0914 80 80 62.0914 80 40C80 17.9086 62.0914 0 40 0ZM40 62.9167C35.4675 62.9167 31.0368 61.5727 27.2682 59.0546C23.4995 56.5364 20.5622 52.9573 18.8277 48.7699C17.0932 44.5824 16.6394 39.9746 17.5236 35.5292C18.4079 31.0838 20.5905 27.0004 23.7954 23.7954C27.0004 20.5905 31.0838 18.4079 35.5292 17.5236C39.9746 16.6394 44.5824 17.0932 48.7699 18.8277C52.9573 20.5622 56.5364 23.4995 59.0546 27.2682C61.5727 31.0368 62.9167 35.4675 62.9167 40C62.9167 46.0779 60.5023 51.9068 56.2046 56.2046C51.9068 60.5023 46.0779 62.9167 40 62.9167Z" fill="white"/>
<path d="M53.136 29.9826C50.5062 32.3705 47.4584 34.2525 44.1455 35.534C44.7342 36.7575 45.2919 37.9901 45.8188 39.2318C48.4287 38.8107 51.0795 38.7022 53.715 38.9085C55.6735 39.0622 57.6173 39.3663 59.5291 39.8184C59.4954 35.4621 57.9999 31.2433 55.2824 27.8384C54.5942 28.594 53.8787 29.3087 53.136 29.9826Z" fill="white"/>
</g>
<defs>
<clipPath id="clip0_140_36">
<rect width="80" height="80" fill="white"/>
</clipPath>
</defs>
</svg>
