<svg width="80" height="80" viewBox="0 0 80 80" fill="none" xmlns="http://www.w3.org/2000/svg">
<path d="M70.0054 79.9976H9.96752C8.65322 80.0267 7.34692 79.7881 6.12978 79.2967C4.91263 78.8052 3.81066 78.0713 2.89234 77.1407C1.94918 76.2161 1.20662 75.1109 0.710075 73.8926C0.213531 72.6743 -0.0265523 71.3687 0.00451388 70.0554V10.0024C-0.0362278 8.67941 0.199189 7.36235 0.696063 6.13345C1.19294 4.90455 1.94059 3.7902 2.89234 2.85999C3.81066 1.92935 4.91263 1.19549 6.12978 0.704007C7.34692 0.212526 8.65322 -0.0260703 9.96752 0.00304328H70.0054C71.3246 -0.0300216 72.6364 0.206652 73.8588 0.698249C75.0812 1.18985 76.1878 1.92578 77.1095 2.85999C78.0505 3.78024 78.7919 4.88064 79.2884 6.09395C79.7849 7.30726 80.0261 8.60799 79.9973 9.91666V69.9126C80.0284 71.2258 79.7883 72.5315 79.2918 73.7497C78.7952 74.968 78.0527 76.0732 77.1095 76.9978C76.2004 77.9579 75.0993 78.7204 73.8763 79.2368C72.6533 79.7532 71.3351 80.0123 70.0054 79.9976ZM65.9914 38.2005C65.6564 31.7897 62.9488 25.725 58.3846 21.1622C53.8205 16.5995 47.7189 13.8576 41.2427 13.4593H38.1527C31.718 13.8878 25.6632 16.6273 21.1269 21.1625C16.5905 25.6976 13.8852 31.7161 13.5195 38.0862V41.2574C15.4448 55.8278 23.6558 64.0178 38.1527 65.8272H41.3004C47.7404 65.4255 53.8085 62.7039 58.3579 58.1768C62.9074 53.6497 65.6229 47.6307 65.9914 41.2574V38.2005ZM23.1071 54.5708C19.2525 50.4662 17.1788 45.0296 17.3315 39.4289V39.029C24.9264 39.0776 32.4871 38.0186 39.7699 35.8863H40.0009C40.5508 37.215 41.2794 38.4643 42.1668 39.6004C34.1931 42.1469 27.422 47.4652 23.1071 54.5708ZM38.4415 32.2009C31.7579 34.1061 24.8357 35.0679 17.8802 35.0578C18.5468 31.7069 19.9958 28.5566 22.1117 25.8581C24.2276 23.1597 26.9518 20.9879 30.0668 19.516C33.099 23.5839 35.8951 27.8191 38.4415 32.2009ZM48.4623 60.1704C45.4122 61.9279 41.9692 62.9095 38.4415 63.0273C36.085 62.9749 33.7651 62.4401 31.6279 61.4566C29.4908 60.4732 27.5826 59.0625 26.0238 57.3134C29.9409 50.7213 36.1847 45.796 43.5529 43.4858C45.7838 48.859 47.4295 54.4521 48.4623 60.1704ZM42.8887 30.9724C41.0983 27.7535 38.3356 23.3919 34.6007 17.8875C36.5333 17.3878 38.5232 17.1381 40.5207 17.1447C43.1076 17.1388 45.6699 17.6407 48.0593 18.6216C50.4486 19.6024 52.6174 21.0426 54.4401 22.8586C51.4394 26.586 47.4351 29.3987 42.8887 30.9724ZM62.1506 39.5432C58.7572 38.8584 55.3042 38.5044 51.841 38.4862C50.0916 38.4757 48.344 38.5998 46.614 38.8576C46.4408 38.3719 46.0942 37.6005 45.6033 36.6006C45.2221 35.892 44.894 35.1567 44.6214 34.4007C49.4617 32.6101 53.7431 29.5959 57.0391 25.6584C60.2873 29.5317 62.0829 34.3964 62.1217 39.4289L62.1506 39.5432ZM52.3031 58.3134C51.2169 52.9228 49.7796 47.6073 48.0002 42.4002C49.7306 42.1436 51.4774 42.0099 53.2272 42.0002C56.171 41.9906 59.0968 42.4537 61.8906 43.3715C61.4154 46.3679 60.315 49.2336 58.6595 51.7863C57.0039 54.3391 54.8293 56.523 52.2742 58.1991L52.3031 58.3134Z" fill="black"/>
</svg>
