<svg width="80" height="80" viewBox="0 0 80 80" fill="none" xmlns="http://www.w3.org/2000/svg">
<path d="M71.4286 0H8.57143C3.83929 0 0 3.83929 0 8.57143V71.4286C0 76.1607 3.83929 80 8.57143 80H71.4286C76.1607 80 80 76.1607 80 71.4286V8.57143C80 3.83929 76.1607 0 71.4286 0ZM49.5179 68.5179C48.0179 68.7857 47.4643 67.8571 47.4643 67.0893C47.4643 66.125 47.5 61.1964 47.5 57.2143C47.5 54.4286 46.5714 52.6607 45.4821 51.7321C52.0893 51 59.0536 50.0893 59.0536 38.6786C59.0536 35.4286 57.8929 33.8036 56 31.7143C56.3036 30.9464 57.3214 27.7857 55.6964 23.6786C53.2143 22.9107 47.5357 26.875 47.5357 26.875C45.1786 26.2143 42.625 25.875 40.1071 25.875C37.5893 25.875 35.0357 26.2143 32.6786 26.875C32.6786 26.875 27 22.9107 24.5179 23.6786C22.8929 27.7679 23.8929 30.9286 24.2143 31.7143C22.3214 33.8036 21.4286 35.4286 21.4286 38.6786C21.4286 50.0357 28.0893 51 34.6964 51.7321C33.8393 52.5 33.0714 53.8214 32.8036 55.7143C31.1071 56.4821 26.7679 57.8036 24.1786 53.2321C22.5536 50.4107 19.625 50.1786 19.625 50.1786C16.7321 50.1429 19.4286 52 19.4286 52C21.3571 52.8929 22.7143 56.3214 22.7143 56.3214C24.4464 61.625 32.7321 59.8393 32.7321 59.8393C32.7321 62.3214 32.7679 66.3571 32.7679 67.0893C32.7679 67.8571 32.2321 68.7857 30.7143 68.5179C18.9286 64.5714 10.6786 53.3571 10.6786 40.25C10.6786 23.8571 23.2143 11.4107 39.6071 11.4107C56 11.4107 69.2857 23.8571 69.2857 40.25C69.3036 53.3571 61.3036 64.5893 49.5179 68.5179ZM32 57.6071C31.6607 57.6786 31.3393 57.5357 31.3036 57.3036C31.2679 57.0357 31.5 56.8036 31.8393 56.7321C32.1786 56.6964 32.5 56.8393 32.5357 57.0714C32.5893 57.3036 32.3571 57.5357 32 57.6071ZM30.3036 57.4464C30.3036 57.6786 30.0357 57.875 29.6786 57.875C29.2857 57.9107 29.0179 57.7143 29.0179 57.4464C29.0179 57.2143 29.2857 57.0179 29.6429 57.0179C29.9821 56.9821 30.3036 57.1786 30.3036 57.4464ZM27.8571 57.25C27.7857 57.4821 27.4286 57.5893 27.125 57.4821C26.7857 57.4107 26.5536 57.1429 26.625 56.9107C26.6964 56.6786 27.0536 56.5714 27.3571 56.6429C27.7143 56.75 27.9464 57.0179 27.8571 57.25ZM25.6607 56.2857C25.5 56.4821 25.1607 56.4464 24.8929 56.1786C24.625 55.9464 24.5536 55.6071 24.7321 55.4464C24.8929 55.25 25.2321 55.2857 25.5 55.5536C25.7321 55.7857 25.8214 56.1429 25.6607 56.2857ZM24.0357 54.6607C23.875 54.7679 23.5714 54.6607 23.375 54.3929C23.1786 54.125 23.1786 53.8214 23.375 53.6964C23.5714 53.5357 23.875 53.6607 24.0357 53.9286C24.2321 54.1964 24.2321 54.5179 24.0357 54.6607ZM22.875 52.9286C22.7143 53.0893 22.4464 53 22.25 52.8214C22.0536 52.5893 22.0179 52.3214 22.1786 52.1964C22.3393 52.0357 22.6071 52.125 22.8036 52.3036C23 52.5357 23.0357 52.8036 22.875 52.9286ZM21.6786 51.6071C21.6071 51.7679 21.375 51.8036 21.1786 51.6786C20.9464 51.5714 20.8393 51.375 20.9107 51.2143C20.9821 51.1071 21.1786 51.0536 21.4107 51.1429C21.6429 51.2679 21.75 51.4643 21.6786 51.6071Z" fill="black"/>
</svg>
