<svg width="80" height="80" viewBox="0 0 80 80" fill="none" xmlns="http://www.w3.org/2000/svg">
<path fill-rule="evenodd" clip-rule="evenodd" d="M70.2259 0C75.6205 0 80 4.37969 80 9.77406V70.2259C80 75.6203 75.6203 80 70.2259 80H9.77406C4.37969 80 0 75.6203 0 70.2259V9.77406C0 4.37969 4.37953 0 9.77406 0L70.2259 0ZM40 12.6562C32.5739 12.6562 31.6427 12.6877 28.7263 12.8208C25.8158 12.9536 23.8281 13.4158 22.0887 14.0919C20.2906 14.7906 18.7658 15.7256 17.2456 17.2456C15.7255 18.7658 14.7905 20.2908 14.0917 22.0887C13.4158 23.8281 12.9536 25.8158 12.8206 28.7263C12.6877 31.6427 12.6562 32.5739 12.6562 40C12.6562 47.4261 12.6877 48.3573 12.8206 51.2738C12.9536 54.1842 13.4158 56.1719 14.0917 57.9112C14.7905 59.7092 15.7255 61.2342 17.2456 62.7544C18.7658 64.2745 20.2906 65.2095 22.0887 65.9083C23.8281 66.5842 25.8158 67.0464 28.7263 67.1792C31.6427 67.3123 32.5739 67.3438 40 67.3438C47.4261 67.3438 48.3573 67.3123 51.2738 67.1792C54.1842 67.0464 56.1719 66.5842 57.9112 65.9083C59.7092 65.2095 61.2342 64.2745 62.7544 62.7544C64.2745 61.2342 65.2095 59.7092 65.9083 57.9112C66.5842 56.1719 67.0464 54.1842 67.1792 51.2738C67.3123 48.3573 67.3438 47.4261 67.3438 40C67.3438 32.5739 67.3123 31.6427 67.1792 28.7263C67.0464 25.8158 66.5842 23.8281 65.9083 22.0887C65.2095 20.2908 64.2745 18.7658 62.7544 17.2456C61.2342 15.7256 59.7092 14.7906 57.9112 14.0919C56.1719 13.4158 54.1842 12.9536 51.2738 12.8208C48.3573 12.6877 47.4261 12.6562 40 12.6562ZM40 17.5831C47.3011 17.5831 48.1659 17.6109 51.0492 17.7425C53.7152 17.8642 55.163 18.3097 56.1266 18.6839C57.403 19.18 58.3138 19.7727 59.2706 20.7294C60.2275 21.6863 60.82 22.5972 61.3161 23.8734C61.6905 24.837 62.1359 26.2848 62.2575 28.9508C62.3891 31.8341 62.417 32.6989 62.417 40C62.417 47.3011 62.3891 48.1659 62.2575 51.0492C62.1359 53.7152 61.6905 55.163 61.3161 56.1266C60.82 57.403 60.2275 58.3138 59.2706 59.2706C58.3138 60.2275 57.403 60.82 56.1266 61.3161C55.163 61.6905 53.7152 62.1359 51.0492 62.2575C48.1664 62.3891 47.3016 62.417 40 62.417C32.6984 62.417 31.8337 62.3891 28.9508 62.2575C26.2848 62.1359 24.837 61.6905 23.8734 61.3161C22.597 60.82 21.6863 60.2275 20.7294 59.2706C19.7725 58.3138 19.1798 57.403 18.6839 56.1266C18.3095 55.163 17.8641 53.7152 17.7423 51.0492C17.6108 48.1659 17.583 47.3011 17.583 40C17.583 32.6989 17.6108 31.8341 17.7423 28.9508C17.8641 26.2848 18.3095 24.837 18.6839 23.8734C19.1798 22.5972 19.7725 21.6863 20.7294 20.7294C21.6863 19.7727 22.597 19.18 23.8734 18.6839C24.837 18.3097 26.2848 17.8642 28.9508 17.7425C31.8341 17.6109 32.6989 17.5831 40 17.5831ZM40 25.9586C32.2452 25.9586 25.9586 32.2452 25.9586 40C25.9586 47.7548 32.2452 54.0414 40 54.0414C47.7548 54.0414 54.0414 47.7548 54.0414 40C54.0414 32.2452 47.7548 25.9586 40 25.9586ZM40 49.1145C34.9661 49.1145 30.8855 45.0339 30.8855 40C30.8855 34.9661 34.9661 30.8855 40 30.8855C45.0339 30.8855 49.1145 34.9661 49.1145 40C49.1145 45.0339 45.0339 49.1145 40 49.1145ZM57.8775 25.4039C57.8775 27.2161 56.4083 28.685 54.5961 28.685C52.7841 28.685 51.315 27.2161 51.315 25.4039C51.315 23.5917 52.7841 22.1227 54.5961 22.1227C56.4083 22.1227 57.8775 23.5917 57.8775 25.4039Z" fill="black"/>
</svg>
