<svg width="80" height="80" viewBox="0 0 80 80" fill="none" xmlns="http://www.w3.org/2000/svg">
<g clip-path="url(#clip0_25_255)">
<path fill-rule="evenodd" clip-rule="evenodd" d="M40 0C62.0766 0 80 17.9234 80 40C80 62.0766 62.0766 80 40 80C17.9234 80 0 62.0766 0 40C0 17.9234 17.9234 0 40 0ZM40 15C33.2105 15 32.3591 15.0287 29.6925 15.1505C27.0316 15.2719 25.2142 15.6945 23.6239 16.3125C21.98 16.9514 20.5858 17.8062 19.1959 19.1961C17.8061 20.5859 16.9513 21.9802 16.3123 23.6241C15.6944 25.2142 15.2719 27.0316 15.1503 29.6925C15.0287 32.3591 15 33.2105 15 40C15 46.7895 15.0287 47.6409 15.1503 50.3075C15.2719 52.9684 15.6944 54.7858 16.3123 56.3759C16.9513 58.0198 17.8061 59.4141 19.1959 60.8041C20.5858 62.1939 21.98 63.0488 23.6239 63.6877C25.2142 64.3055 27.0316 64.7281 29.6925 64.8495C32.3591 64.9712 33.2105 65 40 65C46.7895 65 47.6409 64.9712 50.3075 64.8495C52.9684 64.7281 54.7858 64.3055 56.3759 63.6877C58.0198 63.0488 59.4141 62.1939 60.8041 60.8041C62.1939 59.4141 63.0488 58.0198 63.6877 56.3759C64.3055 54.7858 64.7281 52.9684 64.8495 50.3075C64.9712 47.6409 65 46.7895 65 40C65 33.2105 64.9712 32.3591 64.8495 29.6925C64.7281 27.0316 64.3055 25.2142 63.6877 23.6241C63.0488 21.9802 62.1939 20.5859 60.8041 19.1961C59.4141 17.8062 58.0198 16.9514 56.3759 16.3125C54.7858 15.6945 52.9684 15.2719 50.3075 15.1505C47.6409 15.0287 46.7895 15 40 15ZM40 19.5045C46.6753 19.5045 47.4659 19.53 50.1022 19.6503C52.5397 19.7616 53.8633 20.1687 54.7442 20.5111C55.9113 20.9645 56.7441 21.5064 57.6188 22.3813C58.4938 23.2559 59.0355 24.0889 59.4889 25.2558C59.8312 26.1367 60.2386 27.4603 60.3497 29.8978C60.47 32.5341 60.4955 33.3247 60.4955 40C60.4955 46.6753 60.47 47.4659 60.3497 50.1022C60.2386 52.5397 59.8312 53.8633 59.4889 54.7442C59.0355 55.9113 58.4938 56.7441 57.6188 57.6188C56.7441 58.4938 55.9113 59.0355 54.7442 59.4889C53.8633 59.8312 52.5397 60.2386 50.1022 60.3497C47.4664 60.47 46.6758 60.4955 40 60.4955C33.3242 60.4955 32.5337 60.47 29.8978 60.3497C27.4603 60.2386 26.1367 59.8312 25.2558 59.4889C24.0887 59.0355 23.2559 58.4938 22.3811 57.6188C21.5063 56.7441 20.9645 55.9113 20.5111 54.7442C20.1687 53.8633 19.7614 52.5397 19.6502 50.1022C19.5298 47.4659 19.5045 46.6753 19.5045 40C19.5045 33.3247 19.5298 32.5341 19.6502 29.8978C19.7614 27.4603 20.1687 26.1367 20.5111 25.2558C20.9645 24.0889 21.5063 23.2559 22.3811 22.3813C23.2559 21.5064 24.0887 20.9645 25.2558 20.5111C26.1367 20.1687 27.4603 19.7616 29.8978 19.6503C32.5341 19.53 33.3247 19.5045 40 19.5045ZM40 27.1622C32.9098 27.1622 27.1622 32.9098 27.1622 40C27.1622 47.0902 32.9098 52.8378 40 52.8378C47.0902 52.8378 52.8378 47.0902 52.8378 40C52.8378 32.9098 47.0902 27.1622 40 27.1622ZM40 48.3333C35.3977 48.3333 31.6667 44.6023 31.6667 40C31.6667 35.3977 35.3977 31.6667 40 31.6667C44.6023 31.6667 48.3333 35.3977 48.3333 40C48.3333 44.6023 44.6023 48.3333 40 48.3333ZM56.3452 26.655C56.3452 28.3119 55.0019 29.6548 53.345 29.6548C51.6883 29.6548 50.3452 28.3119 50.3452 26.655C50.3452 24.9981 51.6883 23.655 53.345 23.655C55.0019 23.655 56.3452 24.9981 56.3452 26.655Z" fill="white"/>
</g>
<defs>
<clipPath id="clip0_25_255">
<rect width="80" height="80" fill="white"/>
</clipPath>
</defs>
</svg>
