<svg width="80" height="80" viewBox="0 0 80 80" fill="none" xmlns="http://www.w3.org/2000/svg">
<path fill-rule="evenodd" clip-rule="evenodd" d="M70.2259 0C75.6205 0 80 4.37969 80 9.77406V70.2259C80 75.6203 75.6203 80 70.2259 80H9.77406C4.37969 80 0 75.6203 0 70.2259V9.77406C0 4.37969 4.37953 0 9.77406 0L70.2259 0ZM25.072 66.1372V30.8689H13.347V66.1372H25.072ZM67.3438 66.1372V45.9123C67.3438 35.0791 61.5597 30.0395 53.8467 30.0395C47.6273 30.0395 44.8414 33.46 43.2816 35.8623V30.8689H31.5595C31.715 34.1784 31.5595 66.1372 31.5595 66.1372H43.2814V46.4409C43.2814 45.3866 43.3573 44.3328 43.668 43.5792C44.5139 41.4738 46.4441 39.2927 49.6827 39.2927C53.9225 39.2927 55.6213 42.5281 55.6213 47.2672V66.1372H67.3438ZM19.2887 13.8628C15.2772 13.8628 12.6562 16.5002 12.6562 19.9569C12.6562 23.3409 15.1975 26.0509 19.1336 26.0509H19.2092C23.2975 26.0509 25.8423 23.3409 25.8423 19.9569C25.7666 16.505 23.3047 13.8703 19.2887 13.8628Z" fill="black"/>
</svg>
