<svg width="80" height="80" viewBox="0 0 80 80" fill="none" xmlns="http://www.w3.org/2000/svg">
<g clip-path="url(#clip0_25_251)">
<path fill-rule="evenodd" clip-rule="evenodd" d="M40 0C62.0766 0 80 17.9234 80 40C80 62.0766 62.0766 80 40 80C17.9234 80 0 62.0766 0 40C0 17.9234 17.9234 0 40 0ZM27.4942 62.4798V31.2422H17.1092V62.4798H27.4942ZM64.9348 62.4798V44.5664C64.9348 34.9713 59.8119 30.5077 52.9803 30.5077C47.4717 30.5077 45.0042 33.5372 43.6227 35.665V31.2422H33.2403C33.378 34.173 33.2403 62.4798 33.2403 62.4798H43.6225V45.0345C43.6225 44.1008 43.6897 43.1673 43.9648 42.5C44.7141 40.6352 46.4238 38.7033 49.2922 38.7033C53.0475 38.7033 54.552 41.5689 54.552 45.7664V62.4798H64.9348ZM22.3719 16.1797C18.8187 16.1797 16.4973 18.5156 16.4973 21.5773C16.4973 24.5745 18.7481 26.9748 22.2344 26.9748H22.3014C25.9225 26.9748 28.1764 24.5745 28.1764 21.5773C28.1092 18.5156 25.9227 16.1797 22.3719 16.1797Z" fill="white"/>
</g>
<defs>
<clipPath id="clip0_25_251">
<rect width="80" height="80" fill="white"/>
</clipPath>
</defs>
</svg>
