<svg width="117" height="77" viewBox="0 0 117 77" fill="none" xmlns="http://www.w3.org/2000/svg">
<path d="M95.9243 32.2972C95.9243 31.9764 95.9766 31.6556 95.9766 31.3347C95.9766 14.1434 82.1873 0 65.473 0C53.4335 0 43.0654 7.45938 38.2078 17.9132C36.0924 16.817 33.742 16.2021 31.2087 16.2021C23.4783 16.2021 17.0799 22.5385 15.8263 30.1049C6.63348 33.3667 0 41.9222 0 52.5097C0 65.8243 10.4725 77 23.4 77H95.5848C107.337 77 117 66.5997 117 54.4615C117 42.2698 107.755 32.324 95.9243 32.2972ZM95.4542 72.6153L94.6185 72.7222H23.6089C12.9275 72.7222 4.2308 63.3913 4.2308 52.376C4.2308 43.8472 9.50625 36.7622 17.3411 33.9816L19.5348 33.1795L19.9266 30.8267C20.8667 25.0517 25.6982 20.3194 31.3915 20.3194C33.1935 20.3194 34.9694 20.7472 36.5886 21.6028L40.1143 23.4208L41.8118 19.758C46.1471 10.4271 55.4183 4.19757 65.4208 4.19757C79.8629 4.19757 91.7719 15.9882 91.7719 30.8535C91.7719 34.4094 91.7196 36.2809 91.7196 36.2809L95.6893 36.3076C105.274 36.4413 112.821 44.4622 112.821 54.3278C112.821 64.1934 105.039 72.5618 95.4542 72.6153Z" fill="black"/>
</svg>
