<svg width="90" height="90" viewBox="0 0 90 90" fill="none" xmlns="http://www.w3.org/2000/svg">
<path d="M82.5 78.75H7.5C3.36375 78.75 0 75.2363 0 70.9181V15.3319C0 11.0138 3.36375 7.5 7.5 7.5H82.5C86.6363 7.5 90 11.0138 90 15.3319V70.9181C90 75.2363 86.6363 78.75 82.5 78.75ZM7.5 11.25C5.43187 11.25 3.75 13.0819 3.75 15.3319V70.9181C3.75 73.1681 5.43187 75 7.5 75H82.5C84.5681 75 86.25 73.1681 86.25 70.9181V15.3319C86.25 13.0819 84.5681 11.25 82.5 11.25H7.5Z" fill="black"/>
<path d="M71.25 86.25H18.75C17.715 86.25 16.875 85.41 16.875 84.375C16.875 83.34 17.715 82.5 18.75 82.5H71.25C72.285 82.5 73.125 83.34 73.125 84.375C73.125 85.41 72.285 86.25 71.25 86.25Z" fill="black"/>
<path d="M45 86.25C43.965 86.25 43.125 85.41 43.125 84.375V76.875C43.125 75.84 43.965 75 45 75C46.035 75 46.875 75.84 46.875 76.875V84.375C46.875 85.41 46.035 86.25 45 86.25Z" fill="black"/>
<path d="M45 73.125C47.0711 73.125 48.75 71.4461 48.75 69.375C48.75 67.3039 47.0711 65.625 45 65.625C42.9289 65.625 41.25 67.3039 41.25 69.375C41.25 71.4461 42.9289 73.125 45 73.125Z" fill="black"/>
<path d="M88.125 60H1.875V63.75H88.125V60Z" fill="black"/>
</svg>
