<svg width="90" height="75" viewBox="0 0 90 75" fill="none" xmlns="http://www.w3.org/2000/svg">
<path d="M35.966 31.9825L49.7378 50.1337L58.8548 38.1187C59.0183 37.9035 59.2294 37.729 59.4716 37.6089C59.7137 37.4887 59.9804 37.4262 60.2507 37.4262C60.521 37.4262 60.7877 37.4887 61.0298 37.6089C61.272 37.729 61.4831 37.9035 61.6466 38.1187L88.166 73.0675H2L33.1742 31.9825C33.3377 31.7673 33.5488 31.5928 33.791 31.4727C34.0331 31.3525 34.2998 31.29 34.5701 31.29C34.8404 31.29 35.1071 31.3525 35.3492 31.4727C35.5914 31.5928 35.8025 31.7673 35.966 31.9825Z" stroke="black" stroke-width="3" stroke-linecap="round" stroke-linejoin="round"/>
<path d="M34.5692 31.2896V2" stroke="black" stroke-width="3" stroke-linecap="round" stroke-linejoin="round"/>
<path d="M34.5692 19.1973L52.6754 19.1973V5.20407L34.5692 5.20407V19.1973Z" stroke="black" stroke-width="3" stroke-linecap="round" stroke-linejoin="round"/>
<path d="M52.6754 19.1969V13.1597H62.5538L57.9098 19.1969L62.5538 25.2359H46.928V19.1969H52.6754Z" stroke="black" stroke-width="3" stroke-linecap="round" stroke-linejoin="round"/>
<path d="M58.8458 62.136L49.7378 50.1318" stroke="black" stroke-width="3" stroke-linecap="round" stroke-linejoin="round"/>
</svg>
