<svg width="94" height="102" viewBox="0 0 94 102" fill="none" xmlns="http://www.w3.org/2000/svg">
<g clip-path="url(#clip0_27_371)">
<path d="M32.3125 92.4375H61.6875" stroke="black" stroke-width="4" stroke-linecap="round" stroke-linejoin="round"/>
<path d="M28.8977 66.5392C25.4005 63.5886 22.5682 59.813 20.6151 55.4985C18.662 51.184 17.6395 46.4438 17.625 41.6369C17.5516 24.3447 30.3664 9.96111 46.3024 9.56267C52.4699 9.40402 58.5269 11.3564 63.6144 15.143C68.7018 18.9296 72.5615 24.3582 74.6459 30.6588C76.7304 36.9594 76.9339 43.8122 75.2275 50.2453C73.521 56.6785 69.9914 62.3653 65.1391 66.4994C64.0672 67.3984 63.1989 68.5515 62.6007 69.8705C62.0025 71.1895 61.6901 72.6395 61.6875 74.1095V76.5002C61.6875 77.3455 61.378 78.1563 60.8271 78.7541C60.2762 79.3518 59.5291 79.6877 58.75 79.6877H35.25C34.4709 79.6877 33.7238 79.3518 33.1729 78.7541C32.622 78.1563 32.3125 77.3455 32.3125 76.5002V74.1095C32.3033 72.6505 31.9916 71.2124 31.4004 69.9019C30.8093 68.5914 29.9539 67.4421 28.8977 66.5392Z" stroke="black" stroke-width="4" stroke-linecap="round" stroke-linejoin="round"/>
<path d="M49.9742 22.6313C53.5645 23.2918 56.8774 25.1451 59.4556 27.9356C62.0338 30.7261 63.7502 34.3161 64.368 38.2103" stroke="black" stroke-width="4" stroke-linecap="round" stroke-linejoin="round"/>
</g>
<defs>
<clipPath id="clip0_27_371">
<rect width="94" height="102" fill="white"/>
</clipPath>
</defs>
</svg>
